<svg width="1152" height="384" viewBox="0 0 864 288" xmlns="http://www.w3.org/2000/svg" xmlns:xlink="http://www.w3.org/1999/xlink" stroke-linejoin="round" overflow="hidden"><defs></defs><defs><clipPath id="p4e9c5a5e02"><rect x="50.925" y="26.8" width="375.675" height="197.525"/></clipPath><clipPath id="pdf640429c2"><rect x="477.525" y="26.8" width="375.675" height="197.525"/></clipPath></defs><g id="figure_1"><g id="patch_1"><path d="M0 288 864 288 864 0 0 0Z" fill="none"/></g><g id="axes_1"><g id="patch_2"><path d="M50.925 224.325 426.6 224.325 426.6 26.8 50.925 26.8Z" fill="#FFFFFF"/></g><g id="patch_3"><path d="M68.0011 224.325 81.8 224.325 81.8 31.7381 68.0011 31.7381Z" fill="#FFA500" clip-path="url(#p4e9c5a5e02)"/></g><g id="patch_4"><path d="M85.2498 224.325 99.0487 224.325 99.0487 88.5266 85.2498 88.5266Z" fill="#FFA500" clip-path="url(#p4e9c5a5e02)"/></g><g id="patch_5"><path d="M102.498 224.325 116.297 224.325 116.297 93.4647 102.498 93.4647Z" fill="#FFA500" clip-path="url(#p4e9c5a5e02)"/></g><g id="patch_6"><path d="M119.747 224.325 133.546 224.325 133.546 105.81 119.747 105.81Z" fill="#FFA500" clip-path="url(#p4e9c5a5e02)"/></g><g id="patch_7"><path d="M136.996 224.325 150.795 224.325 150.795 114.452 136.996 114.452Z" fill="#FFA500" clip-path="url(#p4e9c5a5e02)"/></g><g id="patch_8"><path d="M154.244 224.325 168.043 224.325 168.043 118.155 154.244 118.155Z" fill="#FFA500" clip-path="url(#p4e9c5a5e02)"/></g><g id="patch_9"><path d="M171.493 224.325 185.292 224.325 185.292 121.859 171.493 121.859Z" fill="#FFA500" clip-path="url(#p4e9c5a5e02)"/></g><g id="patch_10"><path d="M188.742 224.325 202.54 224.325 202.54 123.093 188.742 123.093Z" fill="#FFA500" clip-path="url(#p4e9c5a5e02)"/></g><g id="patch_11"><path d="M205.99 224.325 219.789 224.325 219.789 137.908 205.99 137.908Z" fill="#FFA500" clip-path="url(#p4e9c5a5e02)"/></g><g id="patch_12"><path d="M223.239 224.325 237.038 224.325 237.038 144.08 223.239 144.08Z" fill="#FFA500" clip-path="url(#p4e9c5a5e02)"/></g><g id="patch_13"><path d="M240.487 224.325 254.286 224.325 254.286 145.315 240.487 145.315Z" fill="#FFA500" clip-path="url(#p4e9c5a5e02)"/></g><g id="patch_14"><path d="M257.736 224.325 271.535 224.325 271.535 145.315 257.736 145.315Z" fill="#FFA500" clip-path="url(#p4e9c5a5e02)"/></g><g id="patch_15"><path d="M274.985 224.325 288.784 224.325 288.784 147.784 274.985 147.784Z" fill="#FFA500" clip-path="url(#p4e9c5a5e02)"/></g><g id="patch_16"><path d="M292.233 224.325 306.032 224.325 306.032 161.364 292.233 161.364Z" fill="#FFA500" clip-path="url(#p4e9c5a5e02)"/></g><g id="patch_17"><path d="M309.482 224.325 323.281 224.325 323.281 162.598 309.482 162.598Z" fill="#FFA500" clip-path="url(#p4e9c5a5e02)"/></g><g id="patch_18"><path d="M326.73 224.325 340.529 224.325 340.529 163.833 326.73 163.833Z" fill="#FFA500" clip-path="url(#p4e9c5a5e02)"/></g><g id="patch_19"><path d="M343.979 224.325 357.778 224.325 357.778 166.302 343.979 166.302Z" fill="#FFA500" clip-path="url(#p4e9c5a5e02)"/></g><g id="patch_20"><path d="M361.228 224.325 375.027 224.325 375.027 166.302 361.228 166.302Z" fill="#FFA500" clip-path="url(#p4e9c5a5e02)"/></g><g id="patch_21"><path d="M378.476 224.325 392.275 224.325 392.275 168.771 378.476 168.771Z" fill="#FFA500" clip-path="url(#p4e9c5a5e02)"/></g><g id="patch_22"><path d="M395.725 224.325 409.524 224.325 409.524 172.475 395.725 172.475Z" fill="#FFA500" clip-path="url(#p4e9c5a5e02)"/></g><g id="matplotlib.axis_1"><g id="xtick_1"><g id="line2d_1"><defs><path d="M0 0 0 3.5" id="me505e06eaf" stroke="#000000" stroke-width="0.8"/></defs><g><use x="74.9006" y="224.325" width="100%" height="100%" xlink:href="#me505e06eaf" stroke="#000000" stroke-width="0.8"></use></g></g><g id="text_1"><g transform="matrix(6.12323e-18 -0.1 -0.1 -6.12323e-18 77.66 263.137)"><defs><path d="M12.4062 8.29688 28.5156 8.29688 28.5156 63.9219 10.9844 60.4062 10.9844 69.3906 28.4219 72.9062 38.2812 72.9062 38.2812 8.29688 54.3906 8.29688 54.3906 0 12.4062 0Z" id="DejaVuSans-49"/><path d="M19.1875 8.29688 53.6094 8.29688 53.6094 0 7.32812 0 7.32812 8.29688C11.0677 12.1719 16.1667 17.3698 22.625 23.8906 29.0938 30.4219 33.1562 34.6354 34.8125 36.5312 37.9688 40.0729 40.1719 43.0729 41.4219 45.5312 42.6823 47.9896 43.3125 50.4062 43.3125 52.7812 43.3125 56.6562 41.9531 59.8125 39.2344 62.25 36.5156 64.6979 32.974 65.9219 28.6094 65.9219 25.5156 65.9219 22.25 65.3854 18.8125 64.3125 15.3854 63.2396 11.7188 61.6094 7.8125 59.4219L7.8125 69.3906C11.7812 70.9844 15.4896 72.1875 18.9375 73 22.3958 73.8125 25.5573 74.2188 28.4219 74.2188 35.974 74.2188 41.9948 72.3281 46.4844 68.5469 50.974 64.776 53.2188 59.7344 53.2188 53.4219 53.2188 50.4219 52.6562 47.5781 51.5312 44.8906 50.4167 42.2135 48.375 39.0521 45.4062 35.4062 44.5938 34.4583 42.0052 31.7292 37.6406 27.2188 33.2865 22.7083 27.1354 16.401 19.1875 8.29688Z" id="DejaVuSans-50"/><path d="M31.7812 66.4062C26.7083 66.4062 22.8906 63.9062 20.3281 58.9062 17.776 53.9167 16.5 46.4062 16.5 36.375 16.5 26.3854 17.776 18.8906 20.3281 13.8906 22.8906 8.89062 26.7083 6.39062 31.7812 6.39062 36.8958 6.39062 40.7292 8.89062 43.2812 13.8906 45.8438 18.8906 47.125 26.3854 47.125 36.375 47.125 46.4062 45.8438 53.9167 43.2812 58.9062 40.7292 63.9062 36.8958 66.4062 31.7812 66.4062ZM31.7812 74.2188C39.9583 74.2188 46.2031 70.9844 50.5156 64.5156 54.8281 58.0573 56.9844 48.6771 56.9844 36.375 56.9844 24.1042 54.8281 14.7344 50.5156 8.26562 46.2031 1.80729 39.9583-1.42188 31.7812-1.42188 23.6146-1.42188 17.375 1.80729 13.0625 8.26562 8.75 14.7344 6.59375 24.1042 6.59375 36.375 6.59375 48.6771 8.75 58.0573 13.0625 64.5156 17.375 70.9844 23.6146 74.2188 31.7812 74.2188Z" id="DejaVuSans-48"/></defs><use width="100%" height="100%" xlink:href="#DejaVuSans-49"></use><use x="63.623" width="100%" height="100%" xlink:href="#DejaVuSans-49"></use><use x="127.246" width="100%" height="100%" xlink:href="#DejaVuSans-50"></use><use x="190.869" width="100%" height="100%" xlink:href="#DejaVuSans-48"></use><use x="254.492" width="100%" height="100%" xlink:href="#DejaVuSans-49"></use></g></g></g><g id="xtick_2"><g id="line2d_2"><g><use x="92.1492" y="224.325" width="100%" height="100%" xlink:href="#me505e06eaf" stroke="#000000" stroke-width="0.8"></use></g></g><g id="text_2"><g transform="matrix(6.12323e-18 -0.1 -0.1 -6.12323e-18 94.9086 263.137)"><use width="100%" height="100%" xlink:href="#DejaVuSans-49"></use><use x="63.623" width="100%" height="100%" xlink:href="#DejaVuSans-48"></use><use x="127.246" width="100%" height="100%" xlink:href="#DejaVuSans-48"></use><use x="190.869" width="100%" height="100%" xlink:href="#DejaVuSans-49"></use><use x="254.492" width="100%" height="100%" xlink:href="#DejaVuSans-49"></use></g></g></g><g id="xtick_3"><g id="line2d_3"><g><use x="109.398" y="224.325" width="100%" height="100%" xlink:href="#me505e06eaf" stroke="#000000" stroke-width="0.8"></use></g></g><g id="text_3"><g transform="matrix(6.12323e-18 -0.1 -0.1 -6.12323e-18 112.157 263.137)"><defs><path d="M10.7969 72.9062 49.5156 72.9062 49.5156 64.5938 19.8281 64.5938 19.8281 46.7344C21.2552 47.224 22.6823 47.5885 24.1094 47.8281 25.5469 48.0677 26.9844 48.1875 28.4219 48.1875 36.5573 48.1875 43 45.9583 47.75 41.5 52.5104 37.0417 54.8906 31.0052 54.8906 23.3906 54.8906 15.5469 52.4479 9.44792 47.5625 5.09375 42.6771 0.75 35.7917-1.42188 26.9062-1.42188 23.8438-1.42188 20.724-1.16146 17.5469-0.640625 14.3802-0.119792 11.1042 0.661458 7.71875 1.70312L7.71875 11.625C10.6458 10.0312 13.6719 8.84375 16.7969 8.0625 19.9219 7.28125 23.224 6.89062 26.7031 6.89062 32.3385 6.89062 36.7969 8.36979 40.0781 11.3281 43.3698 14.2865 45.0156 18.3073 45.0156 23.3906 45.0156 28.4635 43.3698 32.4792 40.0781 35.4375 36.7969 38.4062 32.3385 39.8906 26.7031 39.8906 24.0677 39.8906 21.4375 39.599 18.8125 39.0156 16.1979 38.4323 13.526 37.5208 10.7969 36.2812Z" id="DejaVuSans-53"/></defs><use width="100%" height="100%" xlink:href="#DejaVuSans-49"></use><use x="63.623" width="100%" height="100%" xlink:href="#DejaVuSans-48"></use><use x="127.246" width="100%" height="100%" xlink:href="#DejaVuSans-48"></use><use x="190.869" width="100%" height="100%" xlink:href="#DejaVuSans-50"></use><use x="254.492" width="100%" height="100%" xlink:href="#DejaVuSans-53"></use></g></g></g><g id="xtick_4"><g id="line2d_4"><g><use x="126.646" y="224.325" width="100%" height="100%" xlink:href="#me505e06eaf" stroke="#000000" stroke-width="0.8"></use></g></g><g id="text_4"><g transform="matrix(6.12323e-18 -0.1 -0.1 -6.12323e-18 129.406 263.137)"><defs><path d="M33.0156 40.375C28.5885 40.375 25.0781 38.8594 22.4844 35.8281 19.901 32.8073 18.6094 28.6615 18.6094 23.3906 18.6094 18.151 19.901 14.0052 22.4844 10.9531 25.0781 7.91146 28.5885 6.39062 33.0156 6.39062 37.4427 6.39062 40.9479 7.91146 43.5312 10.9531 46.1146 14.0052 47.4062 18.151 47.4062 23.3906 47.4062 28.6615 46.1146 32.8073 43.5312 35.8281 40.9479 38.8594 37.4427 40.375 33.0156 40.375ZM52.5938 71.2969 52.5938 62.3125C50.1146 63.4792 47.6146 64.3698 45.0938 64.9844 42.5729 65.6094 40.0729 65.9219 37.5938 65.9219 31.0833 65.9219 26.1094 63.724 22.6719 59.3281 19.2448 54.9323 17.2865 48.2917 16.7969 39.4062 18.7135 42.2396 21.1198 44.4115 24.0156 45.9219 26.9219 47.4323 30.1146 48.1875 33.5938 48.1875 40.9167 48.1875 46.7031 45.9635 50.9531 41.5156 55.2031 37.0781 57.3281 31.0365 57.3281 23.3906 57.3281 15.901 55.1146 9.89062 50.6875 5.35938 46.2604 0.838542 40.3698-1.42188 33.0156-1.42188 24.5781-1.42188 18.1302 1.80729 13.6719 8.26562 9.21354 14.7344 6.98438 24.1042 6.98438 36.375 6.98438 47.8958 9.71875 57.0833 15.1875 63.9375 20.6562 70.7917 27.9948 74.2188 37.2031 74.2188 39.6823 74.2188 42.1823 73.974 44.7031 73.4844 47.224 72.9948 49.8542 72.2656 52.5938 71.2969Z" id="DejaVuSans-54"/></defs><use width="100%" height="100%" xlink:href="#DejaVuSans-49"></use><use x="63.623" width="100%" height="100%" xlink:href="#DejaVuSans-48"></use><use x="127.246" width="100%" height="100%" xlink:href="#DejaVuSans-48"></use><use x="190.869" width="100%" height="100%" xlink:href="#DejaVuSans-49"></use><use x="254.492" width="100%" height="100%" xlink:href="#DejaVuSans-54"></use></g></g></g><g id="xtick_5"><g id="line2d_5"><g><use x="143.895" y="224.325" width="100%" height="100%" xlink:href="#me505e06eaf" stroke="#000000" stroke-width="0.8"></use></g></g><g id="text_5"><g transform="matrix(6.12323e-18 -0.1 -0.1 -6.12323e-18 146.654 263.137)"><defs><path d="M8.20312 72.9062 55.0781 72.9062 55.0781 68.7031 28.6094 0 18.3125 0 43.2188 64.5938 8.20312 64.5938Z" id="DejaVuSans-55"/></defs><use width="100%" height="100%" xlink:href="#DejaVuSans-49"></use><use x="63.623" width="100%" height="100%" xlink:href="#DejaVuSans-48"></use><use x="127.246" width="100%" height="100%" xlink:href="#DejaVuSans-48"></use><use x="190.869" width="100%" height="100%" xlink:href="#DejaVuSans-50"></use><use x="254.492" width="100%" height="100%" xlink:href="#DejaVuSans-55"></use></g></g></g><g id="xtick_6"><g id="line2d_6"><g><use x="161.144" y="224.325" width="100%" height="100%" xlink:href="#me505e06eaf" stroke="#000000" stroke-width="0.8"></use></g></g><g id="text_6"><g transform="matrix(6.12323e-18 -0.1 -0.1 -6.12323e-18 163.903 263.137)"><use width="100%" height="100%" xlink:href="#DejaVuSans-49"></use><use x="63.623" width="100%" height="100%" xlink:href="#DejaVuSans-48"></use><use x="127.246" width="100%" height="100%" xlink:href="#DejaVuSans-48"></use><use x="190.869" width="100%" height="100%" xlink:href="#DejaVuSans-50"></use><use x="254.492" width="100%" height="100%" xlink:href="#DejaVuSans-50"></use></g></g></g><g id="xtick_7"><g id="line2d_7"><g><use x="178.392" y="224.325" width="100%" height="100%" xlink:href="#me505e06eaf" stroke="#000000" stroke-width="0.8"></use></g></g><g id="text_7"><g transform="matrix(6.12323e-18 -0.1 -0.1 -6.12323e-18 181.152 263.137)"><defs><path d="M10.9844 1.51562 10.9844 10.5C13.4635 9.32292 15.9688 8.42708 18.5 7.8125 21.0417 7.19792 23.5365 6.89062 25.9844 6.89062 32.4948 6.89062 37.4635 9.07812 40.8906 13.4531 44.3281 17.8281 46.2917 24.4792 46.7812 33.4062 44.8958 30.6042 42.5 28.4531 39.5938 26.9531 36.6979 25.4531 33.4948 24.7031 29.9844 24.7031 22.6927 24.7031 16.9219 26.9062 12.6719 31.3125 8.42188 35.7292 6.29688 41.7656 6.29688 49.4219 6.29688 56.901 8.51042 62.901 12.9375 67.4219 17.3646 71.9531 23.2552 74.2188 30.6094 74.2188 39.0469 74.2188 45.4844 70.9844 49.9219 64.5156 54.3698 58.0573 56.5938 48.6771 56.5938 36.375 56.5938 24.8854 53.8646 15.7135 48.4062 8.85938 42.9583 2.00521 35.6302-1.42188 26.4219-1.42188 23.9427-1.42188 21.4323-1.17708 18.8906-0.6875 16.3594-0.197917 13.724 0.536458 10.9844 1.51562ZM30.6094 32.4219C35.0365 32.4219 38.5417 33.9323 41.125 36.9531 43.7188 39.9844 45.0156 44.1406 45.0156 49.4219 45.0156 54.6615 43.7188 58.8021 41.125 61.8438 38.5417 64.8854 35.0365 66.4062 30.6094 66.4062 26.1823 66.4062 22.6771 64.8854 20.0938 61.8438 17.5104 58.8021 16.2188 54.6615 16.2188 49.4219 16.2188 44.1406 17.5104 39.9844 20.0938 36.9531 22.6771 33.9323 26.1823 32.4219 30.6094 32.4219Z" id="DejaVuSans-57"/></defs><use width="100%" height="100%" xlink:href="#DejaVuSans-49"></use><use x="63.623" width="100%" height="100%" xlink:href="#DejaVuSans-48"></use><use x="127.246" width="100%" height="100%" xlink:href="#DejaVuSans-48"></use><use x="190.869" width="100%" height="100%" xlink:href="#DejaVuSans-49"></use><use x="254.492" width="100%" height="100%" xlink:href="#DejaVuSans-57"></use></g></g></g><g id="xtick_8"><g id="line2d_8"><g><use x="195.641" y="224.325" width="100%" height="100%" xlink:href="#me505e06eaf" stroke="#000000" stroke-width="0.8"></use></g></g><g id="text_8"><g transform="matrix(6.12323e-18 -0.1 -0.1 -6.12323e-18 198.4 263.137)"><defs><path d="M40.5781 39.3125C45.2969 38.3021 48.9792 36.1979 51.625 33 54.2812 29.8125 55.6094 25.875 55.6094 21.1875 55.6094 14 53.1354 8.43229 48.1875 4.48438 43.2396 0.546875 36.2083-1.42188 27.0938-1.42188 24.0417-1.42188 20.8958-1.11979 17.6562-0.515625 14.4167 0.0885417 11.0729 0.994792 7.625 2.20312L7.625 11.7188C10.3542 10.125 13.3438 8.92188 16.5938 8.10938 19.8542 7.29688 23.2604 6.89062 26.8125 6.89062 32.9896 6.89062 37.6979 8.10938 40.9375 10.5469 44.1771 12.9844 45.7969 16.5312 45.7969 21.1875 45.7969 25.4896 44.2917 28.849 41.2812 31.2656 38.2708 33.6927 34.0833 34.9062 28.7188 34.9062L20.2188 34.9062 20.2188 43.0156 29.1094 43.0156C33.9531 43.0156 37.6615 43.9844 40.2344 45.9219 42.8073 47.8594 44.0938 50.651 44.0938 54.2969 44.0938 58.0365 42.7656 60.9062 40.1094 62.9062 37.4635 64.9167 33.6667 65.9219 28.7188 65.9219 26.0104 65.9219 23.1094 65.625 20.0156 65.0312 16.9219 64.4479 13.5208 63.5417 9.8125 62.3125L9.8125 71.0938C13.5625 72.1354 17.0729 72.9167 20.3438 73.4375 23.6146 73.9583 26.6979 74.2188 29.5938 74.2188 37.0833 74.2188 43.0052 72.5156 47.3594 69.1094 51.724 65.7135 53.9062 61.1198 53.9062 55.3281 53.9062 51.2865 52.75 47.875 50.4375 45.0938 48.125 42.3125 44.8385 40.3854 40.5781 39.3125Z" id="DejaVuSans-51"/></defs><use width="100%" height="100%" xlink:href="#DejaVuSans-49"></use><use x="63.623" width="100%" height="100%" xlink:href="#DejaVuSans-48"></use><use x="127.246" width="100%" height="100%" xlink:href="#DejaVuSans-48"></use><use x="190.869" width="100%" height="100%" xlink:href="#DejaVuSans-48"></use><use x="254.492" width="100%" height="100%" xlink:href="#DejaVuSans-51"></use></g></g></g><g id="xtick_9"><g id="line2d_9"><g><use x="212.89" y="224.325" width="100%" height="100%" xlink:href="#me505e06eaf" stroke="#000000" stroke-width="0.8"></use></g></g><g id="text_9"><g transform="matrix(6.12323e-18 -0.1 -0.1 -6.12323e-18 215.649 263.137)"><use width="100%" height="100%" xlink:href="#DejaVuSans-49"></use><use x="63.623" width="100%" height="100%" xlink:href="#DejaVuSans-49"></use><use x="127.246" width="100%" height="100%" xlink:href="#DejaVuSans-49"></use><use x="190.869" width="100%" height="100%" xlink:href="#DejaVuSans-48"></use><use x="254.492" width="100%" height="100%" xlink:href="#DejaVuSans-49"></use></g></g></g><g id="xtick_10"><g id="line2d_10"><g><use x="230.138" y="224.325" width="100%" height="100%" xlink:href="#me505e06eaf" stroke="#000000" stroke-width="0.8"></use></g></g><g id="text_10"><g transform="matrix(6.12323e-18 -0.1 -0.1 -6.12323e-18 232.898 263.137)"><use width="100%" height="100%" xlink:href="#DejaVuSans-49"></use><use x="63.623" width="100%" height="100%" xlink:href="#DejaVuSans-48"></use><use x="127.246" width="100%" height="100%" xlink:href="#DejaVuSans-48"></use><use x="190.869" width="100%" height="100%" xlink:href="#DejaVuSans-48"></use><use x="254.492" width="100%" height="100%" xlink:href="#DejaVuSans-49"></use></g></g></g><g id="xtick_11"><g id="line2d_11"><g><use x="247.387" y="224.325" width="100%" height="100%" xlink:href="#me505e06eaf" stroke="#000000" stroke-width="0.8"></use></g></g><g id="text_11"><g transform="matrix(6.12323e-18 -0.1 -0.1 -6.12323e-18 250.146 263.137)"><use width="100%" height="100%" xlink:href="#DejaVuSans-49"></use><use x="63.623" width="100%" height="100%" xlink:href="#DejaVuSans-48"></use><use x="127.246" width="100%" height="100%" xlink:href="#DejaVuSans-48"></use><use x="190.869" width="100%" height="100%" xlink:href="#DejaVuSans-50"></use><use x="254.492" width="100%" height="100%" xlink:href="#DejaVuSans-51"></use></g></g></g><g id="xtick_12"><g id="line2d_12"><g><use x="264.635" y="224.325" width="100%" height="100%" xlink:href="#me505e06eaf" stroke="#000000" stroke-width="0.8"></use></g></g><g id="text_12"><g transform="matrix(6.12323e-18 -0.1 -0.1 -6.12323e-18 267.395 263.137)"><defs><path d="M37.7969 64.3125 12.8906 25.3906 37.7969 25.3906ZM35.2031 72.9062 47.6094 72.9062 47.6094 25.3906 58.0156 25.3906 58.0156 17.1875 47.6094 17.1875 47.6094 0 37.7969 0 37.7969 17.1875 4.89062 17.1875 4.89062 26.7031Z" id="DejaVuSans-52"/></defs><use width="100%" height="100%" xlink:href="#DejaVuSans-49"></use><use x="63.623" width="100%" height="100%" xlink:href="#DejaVuSans-48"></use><use x="127.246" width="100%" height="100%" xlink:href="#DejaVuSans-48"></use><use x="190.869" width="100%" height="100%" xlink:href="#DejaVuSans-50"></use><use x="254.492" width="100%" height="100%" xlink:href="#DejaVuSans-52"></use></g></g></g><g id="xtick_13"><g id="line2d_13"><g><use x="281.884" y="224.325" width="100%" height="100%" xlink:href="#me505e06eaf" stroke="#000000" stroke-width="0.8"></use></g></g><g id="text_13"><g transform="matrix(6.12323e-18 -0.1 -0.1 -6.12323e-18 284.643 263.137)"><use width="100%" height="100%" xlink:href="#DejaVuSans-49"></use><use x="63.623" width="100%" height="100%" xlink:href="#DejaVuSans-48"></use><use x="127.246" width="100%" height="100%" xlink:href="#DejaVuSans-48"></use><use x="190.869" width="100%" height="100%" xlink:href="#DejaVuSans-51"></use><use x="254.492" width="100%" height="100%" xlink:href="#DejaVuSans-49"></use></g></g></g><g id="xtick_14"><g id="line2d_14"><g><use x="299.133" y="224.325" width="100%" height="100%" xlink:href="#me505e06eaf" stroke="#000000" stroke-width="0.8"></use></g></g><g id="text_14"><g transform="matrix(6.12323e-18 -0.1 -0.1 -6.12323e-18 301.892 263.137)"><use width="100%" height="100%" xlink:href="#DejaVuSans-49"></use><use x="63.623" width="100%" height="100%" xlink:href="#DejaVuSans-48"></use><use x="127.246" width="100%" height="100%" xlink:href="#DejaVuSans-48"></use><use x="190.869" width="100%" height="100%" xlink:href="#DejaVuSans-48"></use><use x="254.492" width="100%" height="100%" xlink:href="#DejaVuSans-52"></use></g></g></g><g id="xtick_15"><g id="line2d_15"><g><use x="316.381" y="224.325" width="100%" height="100%" xlink:href="#me505e06eaf" stroke="#000000" stroke-width="0.8"></use></g></g><g id="text_15"><g transform="matrix(6.12323e-18 -0.1 -0.1 -6.12323e-18 319.141 263.137)"><use width="100%" height="100%" xlink:href="#DejaVuSans-49"></use><use x="63.623" width="100%" height="100%" xlink:href="#DejaVuSans-48"></use><use x="127.246" width="100%" height="100%" xlink:href="#DejaVuSans-48"></use><use x="190.869" width="100%" height="100%" xlink:href="#DejaVuSans-49"></use><use x="254.492" width="100%" height="100%" xlink:href="#DejaVuSans-48"></use></g></g></g><g id="xtick_16"><g id="line2d_16"><g><use x="333.63" y="224.325" width="100%" height="100%" xlink:href="#me505e06eaf" stroke="#000000" stroke-width="0.8"></use></g></g><g id="text_16"><g transform="matrix(6.12323e-18 -0.1 -0.1 -6.12323e-18 336.389 263.137)"><use width="100%" height="100%" xlink:href="#DejaVuSans-49"></use><use x="63.623" width="100%" height="100%" xlink:href="#DejaVuSans-48"></use><use x="127.246" width="100%" height="100%" xlink:href="#DejaVuSans-48"></use><use x="190.869" width="100%" height="100%" xlink:href="#DejaVuSans-54"></use><use x="254.492" width="100%" height="100%" xlink:href="#DejaVuSans-53"></use></g></g></g><g id="xtick_17"><g id="line2d_17"><g><use x="350.879" y="224.325" width="100%" height="100%" xlink:href="#me505e06eaf" stroke="#000000" stroke-width="0.8"></use></g></g><g id="text_17"><g transform="matrix(6.12323e-18 -0.1 -0.1 -6.12323e-18 353.638 263.137)"><use width="100%" height="100%" xlink:href="#DejaVuSans-49"></use><use x="63.623" width="100%" height="100%" xlink:href="#DejaVuSans-48"></use><use x="127.246" width="100%" height="100%" xlink:href="#DejaVuSans-48"></use><use x="190.869" width="100%" height="100%" xlink:href="#DejaVuSans-49"></use><use x="254.492" width="100%" height="100%" xlink:href="#DejaVuSans-55"></use></g></g></g><g id="xtick_18"><g id="line2d_18"><g><use x="368.127" y="224.325" width="100%" height="100%" xlink:href="#me505e06eaf" stroke="#000000" stroke-width="0.8"></use></g></g><g id="text_18"><g transform="matrix(6.12323e-18 -0.1 -0.1 -6.12323e-18 370.887 263.137)"><use width="100%" height="100%" xlink:href="#DejaVuSans-49"></use><use x="63.623" width="100%" height="100%" xlink:href="#DejaVuSans-48"></use><use x="127.246" width="100%" height="100%" xlink:href="#DejaVuSans-52"></use><use x="190.869" width="100%" height="100%" xlink:href="#DejaVuSans-53"></use><use x="254.492" width="100%" height="100%" xlink:href="#DejaVuSans-49"></use></g></g></g><g id="xtick_19"><g id="line2d_19"><g><use x="385.376" y="224.325" width="100%" height="100%" xlink:href="#me505e06eaf" stroke="#000000" stroke-width="0.8"></use></g></g><g id="text_19"><g transform="matrix(6.12323e-18 -0.1 -0.1 -6.12323e-18 388.135 263.137)"><use width="100%" height="100%" xlink:href="#DejaVuSans-49"></use><use x="63.623" width="100%" height="100%" xlink:href="#DejaVuSans-49"></use><use x="127.246" width="100%" height="100%" xlink:href="#DejaVuSans-51"></use><use x="190.869" width="100%" height="100%" xlink:href="#DejaVuSans-55"></use><use x="254.492" width="100%" height="100%" xlink:href="#DejaVuSans-51"></use></g></g></g><g id="xtick_20"><g id="line2d_20"><g><use x="402.624" y="224.325" width="100%" height="100%" xlink:href="#me505e06eaf" stroke="#000000" stroke-width="0.8"></use></g></g><g id="text_20"><g transform="matrix(6.12323e-18 -0.1 -0.1 -6.12323e-18 405.384 263.137)"><use width="100%" height="100%" xlink:href="#DejaVuSans-49"></use><use x="63.623" width="100%" height="100%" xlink:href="#DejaVuSans-48"></use><use x="127.246" width="100%" height="100%" xlink:href="#DejaVuSans-52"></use><use x="190.869" width="100%" height="100%" xlink:href="#DejaVuSans-53"></use><use x="254.492" width="100%" height="100%" xlink:href="#DejaVuSans-55"></use></g></g></g><g id="text_21"><g transform="matrix(0.1 0 0 -0.1 217.126 274.736)"><defs><path d="M5.60938 72.9062 62.8906 72.9062 62.8906 65.375 16.7969 8.29688 64.0156 8.29688 64.0156 0 4.5 0 4.5 7.51562 50.5938 64.5938 5.60938 64.5938Z" id="DejaVuSans-90"/><path d="M9.42188 54.6875 18.4062 54.6875 18.4062 0 9.42188 0ZM9.42188 75.9844 18.4062 75.9844 18.4062 64.5938 9.42188 64.5938Z" id="DejaVuSans-105"/><path d="M18.1094 8.20312 18.1094-20.7969 9.07812-20.7969 9.07812 54.6875 18.1094 54.6875 18.1094 46.3906C20.0052 49.6406 22.3906 52.0521 25.2656 53.625 28.151 55.2083 31.5938 56 35.5938 56 42.2396 56 47.6354 53.3646 51.7812 48.0938 55.9375 42.8229 58.0156 35.8906 58.0156 27.2969 58.0156 18.7031 55.9375 11.7656 51.7812 6.48438 47.6354 1.21354 42.2396-1.42188 35.5938-1.42188 31.5938-1.42188 28.151-0.630208 25.2656 0.953125 22.3906 2.53646 20.0052 4.95312 18.1094 8.20312ZM48.6875 27.2969C48.6875 33.901 47.3281 39.0833 44.6094 42.8438 41.8906 46.6042 38.1562 48.4844 33.4062 48.4844 28.6458 48.4844 24.9062 46.6042 22.1875 42.8438 19.4688 39.0833 18.1094 33.901 18.1094 27.2969 18.1094 20.6927 19.4688 15.5104 22.1875 11.75 24.9062 7.98958 28.6458 6.10938 33.4062 6.10938 38.1562 6.10938 41.8906 7.98958 44.6094 11.75 47.3281 15.5104 48.6875 20.6927 48.6875 27.2969Z" id="DejaVuSans-112"/><path d="" id="DejaVuSans-32"/><path d="M48.7812 52.5938 48.7812 44.1875C46.2396 45.5938 43.6927 46.6458 41.1406 47.3438 38.5885 48.0417 36.0104 48.3906 33.4062 48.3906 27.5729 48.3906 23.0417 46.5417 19.8125 42.8438 16.5938 39.1562 14.9844 33.974 14.9844 27.2969 14.9844 20.6198 16.5938 15.4323 19.8125 11.7344 23.0417 8.04688 27.5729 6.20312 33.4062 6.20312 36.0104 6.20312 38.5885 6.55208 41.1406 7.25 43.6927 7.94792 46.2396 9 48.7812 10.4062L48.7812 2.09375C46.2708 0.927083 43.6719 0.0520833 40.9844-0.53125 38.3073-1.125 35.4531-1.42188 32.4219-1.42188 24.1823-1.42188 17.6354 1.16667 12.7812 6.34375 7.9375 11.5208 5.51562 18.5052 5.51562 27.2969 5.51562 36.2135 7.96354 43.224 12.8594 48.3281 17.7656 53.4427 24.4844 56 33.0156 56 35.776 56 38.474 55.7135 41.1094 55.1406 43.7448 54.5781 46.3021 53.7292 48.7812 52.5938Z" id="DejaVuSans-99"/><path d="M30.6094 48.3906C25.7969 48.3906 21.9896 46.5104 19.1875 42.75 16.3854 38.9896 14.9844 33.8385 14.9844 27.2969 14.9844 20.7552 16.375 15.6042 19.1562 11.8438 21.9479 8.08333 25.7656 6.20312 30.6094 6.20312 35.401 6.20312 39.1927 8.08854 41.9844 11.8594 44.7865 15.6406 46.1875 20.7865 46.1875 27.2969 46.1875 33.776 44.7865 38.9115 41.9844 42.7031 39.1927 46.4948 35.401 48.3906 30.6094 48.3906ZM30.6094 56C38.4219 56 44.5573 53.4583 49.0156 48.375 53.4844 43.3021 55.7188 36.276 55.7188 27.2969 55.7188 18.349 53.4844 11.3229 49.0156 6.21875 44.5573 1.125 38.4219-1.42188 30.6094-1.42188 22.7656-1.42188 16.6198 1.125 12.1719 6.21875 7.73438 11.3229 5.51562 18.349 5.51562 27.2969 5.51562 36.276 7.73438 43.3021 12.1719 48.375 16.6198 53.4583 22.7656 56 30.6094 56Z" id="DejaVuSans-111"/><path d="M45.4062 46.3906 45.4062 75.9844 54.3906 75.9844 54.3906 0 45.4062 0 45.4062 8.20312C43.5208 4.95312 41.1354 2.53646 38.25 0.953125 35.375-0.630208 31.9167-1.42188 27.875-1.42188 21.2708-1.42188 15.8906 1.21354 11.7344 6.48438 7.58854 11.7656 5.51562 18.7031 5.51562 27.2969 5.51562 35.8906 7.58854 42.8229 11.7344 48.0938 15.8906 53.3646 21.2708 56 27.875 56 31.9167 56 35.375 55.2083 38.25 53.625 41.1354 52.0521 43.5208 49.6406 45.4062 46.3906ZM14.7969 27.2969C14.7969 20.6927 16.1562 15.5104 18.875 11.75 21.5938 7.98958 25.3281 6.10938 30.0781 6.10938 34.8281 6.10938 38.5677 7.98958 41.2969 11.75 44.0365 15.5104 45.4062 20.6927 45.4062 27.2969 45.4062 33.901 44.0365 39.0833 41.2969 42.8438 38.5677 46.6042 34.8281 48.4844 30.0781 48.4844 25.3281 48.4844 21.5938 46.6042 18.875 42.8438 16.1562 39.0833 14.7969 33.901 14.7969 27.2969Z" id="DejaVuSans-100"/><path d="M56.2031 29.5938 56.2031 25.2031 14.8906 25.2031C15.2865 19.0156 17.151 14.3021 20.4844 11.0625 23.8177 7.82292 28.4635 6.20312 34.4219 6.20312 37.8698 6.20312 41.2135 6.625 44.4531 7.46875 47.6927 8.3125 50.9115 9.58333 54.1094 11.2812L54.1094 2.78125C50.8802 1.41667 47.5729 0.375 44.1875-0.34375 40.8021-1.0625 37.3698-1.42188 33.8906-1.42188 25.1615-1.42188 18.25 1.11458 13.1562 6.1875 8.0625 11.2708 5.51562 18.1458 5.51562 26.8125 5.51562 35.7604 7.93229 42.8594 12.7656 48.1094 17.599 53.3698 24.1198 56 32.3281 56 39.6823 56 45.5 53.6302 49.7812 48.8906 54.0625 44.1615 56.2031 37.7292 56.2031 29.5938ZM47.2188 32.2344C47.1562 37.1406 45.7812 41.0573 43.0938 43.9844 40.4062 46.9219 36.849 48.3906 32.4219 48.3906 27.4115 48.3906 23.401 46.974 20.3906 44.1406 17.3802 41.3073 15.6458 37.3177 15.1875 32.1719Z" id="DejaVuSans-101"/></defs><use width="100%" height="100%" xlink:href="#DejaVuSans-90"></use><use x="68.5059" width="100%" height="100%" xlink:href="#DejaVuSans-105"></use><use x="96.2891" width="100%" height="100%" xlink:href="#DejaVuSans-112"></use><use x="159.766" width="100%" height="100%" xlink:href="#DejaVuSans-32"></use><use x="191.553" width="100%" height="100%" xlink:href="#DejaVuSans-99"></use><use x="246.533" width="100%" height="100%" xlink:href="#DejaVuSans-111"></use><use x="307.715" width="100%" height="100%" xlink:href="#DejaVuSans-100"></use><use x="371.191" width="100%" height="100%" xlink:href="#DejaVuSans-101"></use></g></g></g><g id="matplotlib.axis_2"><g id="ytick_1"><g id="line2d_21"><defs><path d="M0 0-3.5 0" id="m59b1d5f39a" stroke="#000000" stroke-width="0.8"/></defs><g><use x="50.925" y="224.325" width="100%" height="100%" xlink:href="#m59b1d5f39a" stroke="#000000" stroke-width="0.8"></use></g></g><g id="text_22"><g transform="matrix(0.1 0 0 -0.1 37.5625 228.124)"><use width="100%" height="100%" xlink:href="#DejaVuSans-48"></use></g></g></g><g id="ytick_2"><g id="line2d_22"><g><use x="50.925" y="199.634" width="100%" height="100%" xlink:href="#m59b1d5f39a" stroke="#000000" stroke-width="0.8"></use></g></g><g id="text_23"><g transform="matrix(0.1 0 0 -0.1 31.2 203.434)"><use width="100%" height="100%" xlink:href="#DejaVuSans-50"></use><use x="63.623" width="100%" height="100%" xlink:href="#DejaVuSans-48"></use></g></g></g><g id="ytick_3"><g id="line2d_23"><g><use x="50.925" y="174.944" width="100%" height="100%" xlink:href="#m59b1d5f39a" stroke="#000000" stroke-width="0.8"></use></g></g><g id="text_24"><g transform="matrix(0.1 0 0 -0.1 31.2 178.743)"><use width="100%" height="100%" xlink:href="#DejaVuSans-52"></use><use x="63.623" width="100%" height="100%" xlink:href="#DejaVuSans-48"></use></g></g></g><g id="ytick_4"><g id="line2d_24"><g><use x="50.925" y="150.253" width="100%" height="100%" xlink:href="#m59b1d5f39a" stroke="#000000" stroke-width="0.8"></use></g></g><g id="text_25"><g transform="matrix(0.1 0 0 -0.1 31.2 154.052)"><use width="100%" height="100%" xlink:href="#DejaVuSans-54"></use><use x="63.623" width="100%" height="100%" xlink:href="#DejaVuSans-48"></use></g></g></g><g id="ytick_5"><g id="line2d_25"><g><use x="50.925" y="125.562" width="100%" height="100%" xlink:href="#m59b1d5f39a" stroke="#000000" stroke-width="0.8"></use></g></g><g id="text_26"><g transform="matrix(0.1 0 0 -0.1 31.2 129.362)"><defs><path d="M31.7812 34.625C27.0938 34.625 23.4062 33.3698 20.7188 30.8594 18.0417 28.349 16.7031 24.901 16.7031 20.5156 16.7031 16.1198 18.0417 12.6667 20.7188 10.1562 23.4062 7.64583 27.0938 6.39062 31.7812 6.39062 36.4688 6.39062 40.1615 7.65104 42.8594 10.1719 45.5677 12.7031 46.9219 16.151 46.9219 20.5156 46.9219 24.901 45.5781 28.349 42.8906 30.8594 40.2135 33.3698 36.5104 34.625 31.7812 34.625ZM21.9219 38.8125C17.6927 39.8542 14.3958 41.8229 12.0312 44.7188 9.67708 47.625 8.5 51.1615 8.5 55.3281 8.5 61.151 10.5729 65.7552 14.7188 69.1406 18.875 72.526 24.5625 74.2188 31.7812 74.2188 39.0417 74.2188 44.7396 72.526 48.875 69.1406 53.0104 65.7552 55.0781 61.151 55.0781 55.3281 55.0781 51.1615 53.8958 47.625 51.5312 44.7188 49.1771 41.8229 45.901 39.8542 41.7031 38.8125 46.4531 37.7083 50.151 35.5417 52.7969 32.3125 55.4531 29.0938 56.7812 25.1615 56.7812 20.5156 56.7812 13.4427 54.625 8.01562 50.3125 4.23438 46 0.463542 39.8229-1.42188 31.7812-1.42188 23.75-1.42188 17.5729 0.463542 13.25 4.23438 8.9375 8.01562 6.78125 13.4427 6.78125 20.5156 6.78125 25.1615 8.11458 29.0938 10.7812 32.3125 13.4583 35.5417 17.1719 37.7083 21.9219 38.8125ZM18.3125 54.3906C18.3125 50.6198 19.4896 47.6771 21.8438 45.5625 24.2083 43.4479 27.5208 42.3906 31.7812 42.3906 36.0208 42.3906 39.3333 43.4479 41.7188 45.5625 44.1146 47.6771 45.3125 50.6198 45.3125 54.3906 45.3125 58.1719 44.1146 61.1198 41.7188 63.2344 39.3333 65.349 36.0208 66.4062 31.7812 66.4062 27.5208 66.4062 24.2083 65.349 21.8438 63.2344 19.4896 61.1198 18.3125 58.1719 18.3125 54.3906Z" id="DejaVuSans-56"/></defs><use width="100%" height="100%" xlink:href="#DejaVuSans-56"></use><use x="63.623" width="100%" height="100%" xlink:href="#DejaVuSans-48"></use></g></g></g><g id="ytick_6"><g id="line2d_26"><g><use x="50.925" y="100.872" width="100%" height="100%" xlink:href="#m59b1d5f39a" stroke="#000000" stroke-width="0.8"></use></g></g><g id="text_27"><g transform="matrix(0.1 0 0 -0.1 24.8375 104.671)"><use width="100%" height="100%" xlink:href="#DejaVuSans-49"></use><use x="63.623" width="100%" height="100%" xlink:href="#DejaVuSans-48"></use><use x="127.246" width="100%" height="100%" xlink:href="#DejaVuSans-48"></use></g></g></g><g id="ytick_7"><g id="line2d_27"><g><use x="50.925" y="76.1813" width="100%" height="100%" xlink:href="#m59b1d5f39a" stroke="#000000" stroke-width="0.8"></use></g></g><g id="text_28"><g transform="matrix(0.1 0 0 -0.1 24.8375 79.9805)"><use width="100%" height="100%" xlink:href="#DejaVuSans-49"></use><use x="63.623" width="100%" height="100%" xlink:href="#DejaVuSans-50"></use><use x="127.246" width="100%" height="100%" xlink:href="#DejaVuSans-48"></use></g></g></g><g id="ytick_8"><g id="line2d_28"><g><use x="50.925" y="51.4906" width="100%" height="100%" xlink:href="#m59b1d5f39a" stroke="#000000" stroke-width="0.8"></use></g></g><g id="text_29"><g transform="matrix(0.1 0 0 -0.1 24.8375 55.2898)"><use width="100%" height="100%" xlink:href="#DejaVuSans-49"></use><use x="63.623" width="100%" height="100%" xlink:href="#DejaVuSans-52"></use><use x="127.246" width="100%" height="100%" xlink:href="#DejaVuSans-48"></use></g></g></g><g id="ytick_9"><g id="line2d_29"><g><use x="50.925" y="26.8" width="100%" height="100%" xlink:href="#m59b1d5f39a" stroke="#000000" stroke-width="0.8"></use></g></g><g id="text_30"><g transform="matrix(0.1 0 0 -0.1 24.8375 30.5992)"><use width="100%" height="100%" xlink:href="#DejaVuSans-49"></use><use x="63.623" width="100%" height="100%" xlink:href="#DejaVuSans-54"></use><use x="127.246" width="100%" height="100%" xlink:href="#DejaVuSans-48"></use></g></g></g><g id="text_31"><g transform="matrix(6.12323e-18 -0.1 -0.1 -6.12323e-18 18.7578 177.432)"><defs><path d="M19.6719 64.7969 19.6719 8.10938 31.5938 8.10938C41.6562 8.10938 49.0208 10.3854 53.6875 14.9375 58.3542 19.5 60.6875 26.6979 60.6875 36.5312 60.6875 46.2917 58.3542 53.4427 53.6875 57.9844 49.0208 62.526 41.6562 64.7969 31.5938 64.7969ZM9.8125 72.9062 30.0781 72.9062C44.2031 72.9062 54.5677 69.9688 61.1719 64.0938 67.7865 58.2188 71.0938 49.0312 71.0938 36.5312 71.0938 23.9583 67.7708 14.724 61.125 8.82812 54.4896 2.94271 44.1406 0 30.0781 0L9.8125 0Z" id="DejaVuSans-68"/><path d="M54.8906 33.0156 54.8906 0 45.9062 0 45.9062 32.7188C45.9062 37.8958 44.8958 41.7656 42.875 44.3281 40.8542 46.901 37.8281 48.1875 33.7969 48.1875 28.9427 48.1875 25.1146 46.6406 22.3125 43.5469 19.5104 40.4635 18.1094 36.25 18.1094 30.9062L18.1094 0 9.07812 0 9.07812 54.6875 18.1094 54.6875 18.1094 46.1875C20.2656 49.4792 22.7969 51.9375 25.7031 53.5625 28.6198 55.1875 31.9844 56 35.7969 56 42.0781 56 46.8281 54.0573 50.0469 50.1719 53.276 46.2865 54.8906 40.5677 54.8906 33.0156Z" id="DejaVuSans-110"/><path d="M44.2812 53.0781 44.2812 44.5781C41.75 45.8802 39.1146 46.8542 36.375 47.5 33.6458 48.1562 30.8125 48.4844 27.875 48.4844 23.4167 48.4844 20.0729 47.8021 17.8438 46.4375 15.6146 45.0729 14.5 43.0208 14.5 40.2812 14.5 38.1979 15.2969 36.5625 16.8906 35.375 18.4844 34.1875 21.6927 33.0573 26.5156 31.9844L29.5938 31.2969C35.9688 29.9323 40.5 28.0052 43.1875 25.5156 45.875 23.026 47.2188 19.5521 47.2188 15.0938 47.2188 10.0104 45.2083 5.98438 41.1875 3.01562 37.1667 0.0572917 31.6406-1.42188 24.6094-1.42188 21.6823-1.42188 18.6302-1.13542 15.4531-0.5625 12.276 0.0104167 8.93229 0.864583 5.42188 2L5.42188 11.2812C8.74479 9.55208 12.0156 8.25521 15.2344 7.39062 18.4531 6.53646 21.6458 6.10938 24.8125 6.10938 29.0417 6.10938 32.2917 6.83333 34.5625 8.28125 36.8438 9.72917 37.9844 11.7708 37.9844 14.4062 37.9844 16.8438 37.1615 18.7135 35.5156 20.0156 33.8802 21.3177 30.276 22.5729 24.7031 23.7812L21.5781 24.5156C16.0156 25.6823 11.9948 27.4792 9.51562 29.9062 7.04688 32.3333 5.8125 35.6615 5.8125 39.8906 5.8125 45.0365 7.63542 49.0052 11.2812 51.7969 14.9271 54.599 20.1042 56 26.8125 56 30.125 56 33.2448 55.7552 36.1719 55.2656 39.1094 54.7865 41.8125 54.0573 44.2812 53.0781Z" id="DejaVuSans-115"/><path d="M18.3125 70.2188 18.3125 54.6875 36.8125 54.6875 36.8125 47.7031 18.3125 47.7031 18.3125 18.0156C18.3125 13.5573 18.9219 10.6927 20.1406 9.42188 21.3594 8.15104 23.8438 7.51562 27.5938 7.51562L36.8125 7.51562 36.8125 0 27.5938 0C20.6562 0 15.8698 1.29167 13.2344 3.875 10.599 6.46875 9.28125 11.1823 9.28125 18.0156L9.28125 47.7031 2.6875 47.7031 2.6875 54.6875 9.28125 54.6875 9.28125 70.2188Z" id="DejaVuSans-116"/><path d="M32.1719-5.07812C29.6406-11.5885 27.1667-15.8333 24.75-17.8125 22.3438-19.8021 19.125-20.7969 15.0938-20.7969L7.90625-20.7969 7.90625-13.2812 13.1875-13.2812C15.6562-13.2812 17.5729-12.6927 18.9375-11.5156 20.3125-10.349 21.8281-7.58333 23.4844-3.21875L25.0938 0.875 2.98438 54.6875 12.5 54.6875 29.5938 11.9219 46.6875 54.6875 56.2031 54.6875Z" id="DejaVuSans-121"/><path d="M31 75.875C26.6458 68.3958 23.4062 60.9896 21.2812 53.6562 19.1667 46.3333 18.1094 38.9115 18.1094 31.3906 18.1094 23.8802 19.1771 16.4375 21.3125 9.0625 23.4479 1.6875 26.6771-5.72917 31-13.1875L23.1875-13.1875C18.3125-5.53125 14.6615 1.98958 12.2344 9.375 9.80729 16.7604 8.59375 24.099 8.59375 31.3906 8.59375 38.651 9.79688 45.9583 12.2031 53.3125 14.6198 60.6771 18.2812 68.1979 23.1875 75.875Z" id="DejaVuSans-40"/><path d="M51.125 44 36.9219 44 32.8125 27.6875 47.125 27.6875ZM43.7969 71.7812 38.7188 51.5156 52.9844 51.5156 58.1094 71.7812 65.9219 71.7812 60.8906 51.5156 76.125 51.5156 76.125 44 58.9844 44 54.9844 27.6875 70.5156 27.6875 70.5156 20.2188 53.0781 20.2188 48 0 40.1875 0 45.2188 20.2188 30.9062 20.2188 25.875 0 18.0156 0 23.0938 20.2188 7.71875 20.2188 7.71875 27.6875 24.9062 27.6875 29 44 13.2812 44 13.2812 51.5156 30.9062 51.5156 35.8906 71.7812Z" id="DejaVuSans-35"/><path d="M54.8906 33.0156 54.8906 0 45.9062 0 45.9062 32.7188C45.9062 37.8958 44.8958 41.7656 42.875 44.3281 40.8542 46.901 37.8281 48.1875 33.7969 48.1875 28.9427 48.1875 25.1146 46.6406 22.3125 43.5469 19.5104 40.4635 18.1094 36.25 18.1094 30.9062L18.1094 0 9.07812 0 9.07812 75.9844 18.1094 75.9844 18.1094 46.1875C20.2656 49.4792 22.7969 51.9375 25.7031 53.5625 28.6198 55.1875 31.9844 56 35.7969 56 42.0781 56 46.8281 54.0573 50.0469 50.1719 53.276 46.2865 54.8906 40.5677 54.8906 33.0156Z" id="DejaVuSans-104"/><path d="M8.01562 75.875 15.8281 75.875C20.7031 68.1979 24.3542 60.6771 26.7812 53.3125 29.2083 45.9583 30.4219 38.651 30.4219 31.3906 30.4219 24.099 29.2083 16.7604 26.7812 9.375 24.3542 1.98958 20.7031-5.53125 15.8281-13.1875L8.01562-13.1875C12.3385-5.72917 15.5677 1.6875 17.7031 9.0625 19.8385 16.4375 20.9062 23.8802 20.9062 31.3906 20.9062 38.9115 19.8385 46.3333 17.7031 53.6562 15.5677 60.9896 12.3385 68.3958 8.01562 75.875Z" id="DejaVuSans-41"/></defs><use width="100%" height="100%" xlink:href="#DejaVuSans-68"></use><use x="77.002" width="100%" height="100%" xlink:href="#DejaVuSans-101"></use><use x="138.525" width="100%" height="100%" xlink:href="#DejaVuSans-110"></use><use x="201.904" width="100%" height="100%" xlink:href="#DejaVuSans-115"></use><use x="254.004" width="100%" height="100%" xlink:href="#DejaVuSans-105"></use><use x="281.787" width="100%" height="100%" xlink:href="#DejaVuSans-116"></use><use x="320.996" width="100%" height="100%" xlink:href="#DejaVuSans-121"></use><use x="380.176" width="100%" height="100%" xlink:href="#DejaVuSans-32"></use><use x="411.963" width="100%" height="100%" xlink:href="#DejaVuSans-40"></use><use x="450.977" width="100%" height="100%" xlink:href="#DejaVuSans-35"></use><use x="534.766" width="100%" height="100%" xlink:href="#DejaVuSans-32"></use><use x="566.553" width="100%" height="100%" xlink:href="#DejaVuSans-104"></use><use x="629.932" width="100%" height="100%" xlink:href="#DejaVuSans-111"></use><use x="691.113" width="100%" height="100%" xlink:href="#DejaVuSans-116"></use><use x="730.322" width="100%" height="100%" xlink:href="#DejaVuSans-115"></use><use x="782.422" width="100%" height="100%" xlink:href="#DejaVuSans-112"></use><use x="845.898" width="100%" height="100%" xlink:href="#DejaVuSans-111"></use><use x="907.08" width="100%" height="100%" xlink:href="#DejaVuSans-116"></use><use x="946.289" width="100%" height="100%" xlink:href="#DejaVuSans-115"></use><use x="998.389" width="100%" height="100%" xlink:href="#DejaVuSans-41"></use></g></g></g><g id="patch_23"><path d="M50.925 224.325 50.925 26.8" stroke="#000000" stroke-width="0.8" stroke-linecap="square" stroke-linejoin="miter" fill="none"/></g><g id="patch_24"><path d="M426.6 224.325 426.6 26.8" stroke="#000000" stroke-width="0.8" stroke-linecap="square" stroke-linejoin="miter" fill="none"/></g><g id="patch_25"><path d="M50.925 224.325 426.6 224.325" stroke="#000000" stroke-width="0.8" stroke-linecap="square" stroke-linejoin="miter" fill="none"/></g><g id="patch_26"><path d="M50.925 26.8 426.6 26.8" stroke="#000000" stroke-width="0.8" stroke-linecap="square" stroke-linejoin="miter" fill="none"/></g><g id="text_32"><g transform="matrix(0.12 0 0 -0.12 138.024 20.8)"><defs><path d="M9.1875 72.9062 33.1094 72.9062 49.7031 33.8906 66.4062 72.9062 90.2812 72.9062 90.2812 0 72.5156 0 72.5156 53.3281 55.7188 14.0156 43.7969 14.0156 27 53.3281 27 0 9.1875 0Z" id="DejaVuSans-Bold-77"/><path d="M34.4219 43.5C30.5469 43.5 27.5938 42.1094 25.5625 39.3281 23.5312 36.5469 22.5156 32.5365 22.5156 27.2969 22.5156 22.0573 23.5312 18.0417 25.5625 15.25 27.5938 12.4688 30.5469 11.0781 34.4219 11.0781 38.2344 11.0781 41.1458 12.4688 43.1562 15.25 45.1771 18.0417 46.1875 22.0573 46.1875 27.2969 46.1875 32.5365 45.1771 36.5469 43.1562 39.3281 41.1458 42.1094 38.2344 43.5 34.4219 43.5ZM34.4219 56C43.8281 56 51.1771 53.4583 56.4688 48.375 61.7604 43.3021 64.4062 36.276 64.4062 27.2969 64.4062 18.3073 61.7604 11.2708 56.4688 6.1875 51.1771 1.11458 43.8281-1.42188 34.4219-1.42188 24.9844-1.42188 17.6042 1.11458 12.2812 6.1875 6.95833 11.2708 4.29688 18.3073 4.29688 27.2969 4.29688 36.276 6.95833 43.3021 12.2812 48.375 17.6042 53.4583 24.9844 56 34.4219 56Z" id="DejaVuSans-Bold-111"/><path d="M51.125 52.9844 51.125 39.7031C47.3854 41.2656 43.7708 42.4375 40.2812 43.2188 36.8021 44 33.5156 44.3906 30.4219 44.3906 27.099 44.3906 24.6302 43.974 23.0156 43.1406 21.4115 42.3073 20.6094 41.0312 20.6094 39.3125 20.6094 37.9062 21.2188 36.8281 22.4375 36.0781 23.6562 35.3385 25.8438 34.7865 29 34.4219L32.0781 33.9844C41.0365 32.849 47.0573 30.9792 50.1406 28.375 53.2344 25.7708 54.7812 21.6823 54.7812 16.1094 54.7812 10.2865 52.6302 5.90625 48.3281 2.96875 44.0365 0.0416667 37.6302-1.42188 29.1094-1.42188 25.4948-1.42188 21.7552-1.13542 17.8906-0.5625 14.0365 0.0104167 10.0729 0.864583 6 2L6 15.2812C9.48958 13.5938 13.0625 12.3229 16.7188 11.4688 20.3854 10.625 24.1042 10.2031 27.875 10.2031 31.3021 10.2031 33.875 10.6719 35.5938 11.6094 37.3229 12.5573 38.1875 13.9635 38.1875 15.8281 38.1875 17.3906 37.5938 18.5521 36.4062 19.3125 35.2188 20.0729 32.849 20.6667 29.2969 21.0938L26.2188 21.4844C18.4375 22.4635 12.9844 24.2708 9.85938 26.9062 6.73438 29.5417 5.17188 33.5469 5.17188 38.9219 5.17188 44.7135 7.15625 49.0052 11.125 51.7969 15.1042 54.599 21.1927 56 29.3906 56 32.6198 56 36.0052 55.7552 39.5469 55.2656 43.099 54.7865 46.9583 54.026 51.125 52.9844Z" id="DejaVuSans-Bold-115"/><path d="M27.4844 70.2188 27.4844 54.6875 45.5156 54.6875 45.5156 42.1875 27.4844 42.1875 27.4844 19C27.4844 16.4583 27.9896 14.7396 29 13.8438 30.0104 12.9479 32.0156 12.5 35.0156 12.5L44 12.5 44 0 29 0C22.1042 0 17.2135 1.4375 14.3281 4.3125 11.4531 7.19792 10.0156 12.0938 10.0156 19L10.0156 42.1875 1.3125 42.1875 1.3125 54.6875 10.0156 54.6875 10.0156 70.2188Z" id="DejaVuSans-Bold-116"/><path d="" id="DejaVuSans-Bold-32"/><path d="M45.6094 46.6875 45.6094 75.9844 63.1875 75.9844 63.1875 0 45.6094 0 45.6094 7.90625C43.2031 4.6875 40.5469 2.32812 37.6406 0.828125 34.7448-0.671875 31.3958-1.42188 27.5938-1.42188 20.8542-1.42188 15.3177 1.25521 10.9844 6.60938 6.66146 11.974 4.5 18.8698 4.5 27.2969 4.5 35.724 6.66146 42.6146 10.9844 47.9688 15.3177 53.3229 20.8542 56 27.5938 56 31.3646 56 34.7083 55.2448 37.625 53.7344 40.5417 52.224 43.2031 49.875 45.6094 46.6875ZM34.0781 11.2812C37.8281 11.2812 40.6875 12.6458 42.6562 15.375 44.625 18.1146 45.6094 22.0885 45.6094 27.2969 45.6094 32.5052 44.625 36.474 42.6562 39.2031 40.6875 41.9427 37.8281 43.3125 34.0781 43.3125 30.3698 43.3125 27.5312 41.9427 25.5625 39.2031 23.5938 36.474 22.6094 32.5052 22.6094 27.2969 22.6094 22.0885 23.5938 18.1146 25.5625 15.375 27.5312 12.6458 30.3698 11.2812 34.0781 11.2812Z" id="DejaVuSans-Bold-100"/><path d="M62.9844 27.4844 62.9844 22.5156 22.125 22.5156C22.5417 18.4115 24.0208 15.3333 26.5625 13.2812 29.1042 11.2292 32.651 10.2031 37.2031 10.2031 40.8802 10.2031 44.6458 10.75 48.5 11.8438 52.3646 12.9375 56.3333 14.5885 60.4062 16.7969L60.4062 3.32812C56.2708 1.76562 52.1354 0.583333 48-0.21875 43.8646-1.02083 39.7292-1.42188 35.5938-1.42188 25.6979-1.42188 18.0052 1.09375 12.5156 6.125 7.03646 11.1562 4.29688 18.2135 4.29688 27.2969 4.29688 36.2135 6.98958 43.224 12.375 48.3281 17.7604 53.4427 25.1771 56 34.625 56 43.2188 56 50.0938 53.4115 55.25 48.2344 60.4062 43.0677 62.9844 36.151 62.9844 27.4844ZM45.0156 33.2969C45.0156 36.6198 44.0469 39.2969 42.1094 41.3281 40.1719 43.3698 37.6406 44.3906 34.5156 44.3906 31.1302 44.3906 28.3802 43.4375 26.2656 41.5312 24.151 39.625 22.8333 36.8802 22.3125 33.2969Z" id="DejaVuSans-Bold-101"/><path d="M63.375 33.2969 63.375 0 45.7969 0 45.7969 5.42188 45.7969 25.4844C45.7969 30.2031 45.6927 33.4583 45.4844 35.25 45.276 37.0417 44.9115 38.3594 44.3906 39.2031 43.7031 40.349 42.7708 41.2396 41.5938 41.875 40.4271 42.5104 39.0938 42.8281 37.5938 42.8281 33.9479 42.8281 31.0833 41.4167 29 38.5938 26.9167 35.7812 25.875 31.8854 25.875 26.9062L25.875 0 8.40625 0 8.40625 54.6875 25.875 54.6875 25.875 46.6875C28.5104 49.875 31.3073 52.224 34.2656 53.7344 37.2344 55.2448 40.5104 56 44.0938 56 50.4062 56 55.1979 54.0625 58.4688 50.1875 61.7396 46.3229 63.375 40.6927 63.375 33.2969Z" id="DejaVuSans-Bold-110"/><path d="M63.375 33.2969 63.375 0 45.7969 0 45.7969 5.42188 45.7969 25.3906C45.7969 30.1719 45.6927 33.4583 45.4844 35.25 45.276 37.0417 44.9115 38.3594 44.3906 39.2031 43.7031 40.349 42.7708 41.2396 41.5938 41.875 40.4271 42.5104 39.0938 42.8281 37.5938 42.8281 33.9479 42.8281 31.0833 41.4167 29 38.5938 26.9167 35.7812 25.875 31.8854 25.875 26.9062L25.875 0 8.40625 0 8.40625 75.9844 25.875 75.9844 25.875 46.6875C28.5104 49.875 31.3073 52.224 34.2656 53.7344 37.2344 55.2448 40.5104 56 44.0938 56 50.4062 56 55.1979 54.0625 58.4688 50.1875 61.7396 46.3229 63.375 40.6927 63.375 33.2969Z" id="DejaVuSans-Bold-104"/><path d="M25.875 7.90625 25.875-20.7969 8.40625-20.7969 8.40625 54.6875 25.875 54.6875 25.875 46.6875C28.2917 49.875 30.9635 52.224 33.8906 53.7344 36.8177 55.2448 40.1875 56 44 56 50.7396 56 56.2708 53.3229 60.5938 47.9688 64.9271 42.6146 67.0938 35.724 67.0938 27.2969 67.0938 18.8698 64.9271 11.974 60.5938 6.60938 56.2708 1.25521 50.7396-1.42188 44-1.42188 40.1875-1.42188 36.8177-0.666667 33.8906 0.84375 30.9635 2.36458 28.2917 4.71875 25.875 7.90625ZM37.5 43.3125C33.7604 43.3125 30.8854 41.9375 28.875 39.1875 26.875 36.4375 25.875 32.474 25.875 27.2969 25.875 22.1198 26.875 18.1562 28.875 15.4062 30.8854 12.6562 33.7604 11.2812 37.5 11.2812 41.2396 11.2812 44.0938 12.6458 46.0625 15.375 48.0417 18.1146 49.0312 22.0885 49.0312 27.2969 49.0312 32.5052 48.0417 36.474 46.0625 39.2031 44.0938 41.9427 41.2396 43.3125 37.5 43.3125Z" id="DejaVuSans-Bold-112"/><path d="M5.71875 54.6875 53.4219 54.6875 53.4219 42.4844 24.6094 12.5 53.4219 12.5 53.4219 0 4.5 0 4.5 12.2031 33.2969 42.1875 5.71875 42.1875Z" id="DejaVuSans-Bold-122"/><path d="M8.40625 54.6875 25.875 54.6875 25.875 0 8.40625 0ZM8.40625 75.9844 25.875 75.9844 25.875 61.7188 8.40625 61.7188Z" id="DejaVuSans-Bold-105"/><path d="M52.5938 52.9844 52.5938 38.7188C50.2188 40.3438 47.8333 41.5469 45.4375 42.3281 43.0417 43.1094 40.5573 43.5 37.9844 43.5 33.1094 43.5 29.3125 42.0781 26.5938 39.2344 23.875 36.3906 22.5156 32.4115 22.5156 27.2969 22.5156 22.1823 23.875 18.1979 26.5938 15.3438 29.3125 12.5 33.1094 11.0781 37.9844 11.0781 40.724 11.0781 43.3229 11.4844 45.7812 12.2969 48.2396 13.1198 50.5104 14.3281 52.5938 15.9219L52.5938 1.60938C49.8542 0.598958 47.0781-0.15625 44.2656-0.65625 41.4531-1.16667 38.6302-1.42188 35.7969-1.42188 25.9323-1.42188 18.2135 1.10938 12.6406 6.17188 7.07812 11.2344 4.29688 18.276 4.29688 27.2969 4.29688 36.3177 7.07812 43.3542 12.6406 48.4062 18.2135 53.4688 25.9323 56 35.7969 56 38.6615 56 41.4844 55.75 44.2656 55.25 47.0469 54.75 49.8229 53.9948 52.5938 52.9844Z" id="DejaVuSans-Bold-99"/></defs><use width="100%" height="100%" xlink:href="#DejaVuSans-Bold-77"></use><use x="99.5117" width="100%" height="100%" xlink:href="#DejaVuSans-Bold-111"></use><use x="168.213" width="100%" height="100%" xlink:href="#DejaVuSans-Bold-115"></use><use x="227.734" width="100%" height="100%" xlink:href="#DejaVuSans-Bold-116"></use><use x="275.537" width="100%" height="100%" xlink:href="#DejaVuSans-Bold-32"></use><use x="310.352" width="100%" height="100%" xlink:href="#DejaVuSans-Bold-100"></use><use x="381.934" width="100%" height="100%" xlink:href="#DejaVuSans-Bold-101"></use><use x="449.756" width="100%" height="100%" xlink:href="#DejaVuSans-Bold-110"></use><use x="520.947" width="100%" height="100%" xlink:href="#DejaVuSans-Bold-115"></use><use x="580.469" width="100%" height="100%" xlink:href="#DejaVuSans-Bold-101"></use><use x="648.291" width="100%" height="100%" xlink:href="#DejaVuSans-Bold-32"></use><use x="683.105" width="100%" height="100%" xlink:href="#DejaVuSans-Bold-104"></use><use x="754.297" width="100%" height="100%" xlink:href="#DejaVuSans-Bold-111"></use><use x="822.998" width="100%" height="100%" xlink:href="#DejaVuSans-Bold-116"></use><use x="870.801" width="100%" height="100%" xlink:href="#DejaVuSans-Bold-115"></use><use x="930.322" width="100%" height="100%" xlink:href="#DejaVuSans-Bold-112"></use><use x="1001.9" width="100%" height="100%" xlink:href="#DejaVuSans-Bold-111"></use><use x="1070.61" width="100%" height="100%" xlink:href="#DejaVuSans-Bold-116"></use><use x="1118.41" width="100%" height="100%" xlink:href="#DejaVuSans-Bold-32"></use><use x="1153.22" width="100%" height="100%" xlink:href="#DejaVuSans-Bold-122"></use><use x="1211.43" width="100%" height="100%" xlink:href="#DejaVuSans-Bold-105"></use><use x="1245.7" width="100%" height="100%" xlink:href="#DejaVuSans-Bold-112"></use><use x="1317.29" width="100%" height="100%" xlink:href="#DejaVuSans-Bold-32"></use><use x="1352.1" width="100%" height="100%" xlink:href="#DejaVuSans-Bold-99"></use><use x="1411.38" width="100%" height="100%" xlink:href="#DejaVuSans-Bold-111"></use><use x="1480.08" width="100%" height="100%" xlink:href="#DejaVuSans-Bold-100"></use><use x="1551.66" width="100%" height="100%" xlink:href="#DejaVuSans-Bold-101"></use><use x="1619.48" width="100%" height="100%" xlink:href="#DejaVuSans-Bold-115"></use></g></g></g><g id="axes_2"><g id="patch_27"><path d="M477.525 224.325 853.2 224.325 853.2 26.8 477.525 26.8Z" fill="#FFFFFF"/></g><g id="patch_28"><path d="M494.601 224.325 508.4 224.325 508.4 223.09 494.601 223.09Z" fill="#FFA500" clip-path="url(#pdf640429c2)"/></g><g id="patch_29"><path d="M511.85 224.325 525.649 224.325 525.649 223.09 511.85 223.09Z" fill="#FFA500" clip-path="url(#pdf640429c2)"/></g><g id="patch_30"><path d="M529.098 224.325 542.897 224.325 542.897 223.09 529.098 223.09Z" fill="#FFA500" clip-path="url(#pdf640429c2)"/></g><g id="patch_31"><path d="M546.347 224.325 560.146 224.325 560.146 223.09 546.347 223.09Z" fill="#FFA500" clip-path="url(#pdf640429c2)"/></g><g id="patch_32"><path d="M563.596 224.325 577.395 224.325 577.395 223.09 563.596 223.09Z" fill="#FFA500" clip-path="url(#pdf640429c2)"/></g><g id="patch_33"><path d="M580.844 224.325 594.643 224.325 594.643 223.09 580.844 223.09Z" fill="#FFA500" clip-path="url(#pdf640429c2)"/></g><g id="patch_34"><path d="M598.093 224.325 611.892 224.325 611.892 221.856 598.093 221.856Z" fill="#FFA500" clip-path="url(#pdf640429c2)"/></g><g id="patch_35"><path d="M615.341 224.325 629.14 224.325 629.14 221.856 615.341 221.856Z" fill="#FFA500" clip-path="url(#pdf640429c2)"/></g><g id="patch_36"><path d="M632.59 224.325 646.389 224.325 646.389 221.856 632.59 221.856Z" fill="#FFA500" clip-path="url(#pdf640429c2)"/></g><g id="patch_37"><path d="M649.839 224.325 663.638 224.325 663.638 221.856 649.839 221.856Z" fill="#FFA500" clip-path="url(#pdf640429c2)"/></g><g id="patch_38"><path d="M667.087 224.325 680.886 224.325 680.886 221.856 667.087 221.856Z" fill="#FFA500" clip-path="url(#pdf640429c2)"/></g><g id="patch_39"><path d="M684.336 224.325 698.135 224.325 698.135 220.621 684.336 220.621Z" fill="#FFA500" clip-path="url(#pdf640429c2)"/></g><g id="patch_40"><path d="M701.585 224.325 715.383 224.325 715.383 220.621 701.585 220.621Z" fill="#FFA500" clip-path="url(#pdf640429c2)"/></g><g id="patch_41"><path d="M718.833 224.325 732.632 224.325 732.632 220.621 718.833 220.621Z" fill="#FFA500" clip-path="url(#pdf640429c2)"/></g><g id="patch_42"><path d="M736.082 224.325 749.881 224.325 749.881 220.621 736.082 220.621Z" fill="#FFA500" clip-path="url(#pdf640429c2)"/></g><g id="patch_43"><path d="M753.331 224.325 767.129 224.325 767.129 220.621 753.331 220.621Z" fill="#FFA500" clip-path="url(#pdf640429c2)"/></g><g id="patch_44"><path d="M770.579 224.325 784.378 224.325 784.378 220.621 770.579 220.621Z" fill="#FFA500" clip-path="url(#pdf640429c2)"/></g><g id="patch_45"><path d="M787.828 224.325 801.627 224.325 801.627 220.621 787.828 220.621Z" fill="#FFA500" clip-path="url(#pdf640429c2)"/></g><g id="patch_46"><path d="M805.076 224.325 818.875 224.325 818.875 219.387 805.076 219.387Z" fill="#FFA500" clip-path="url(#pdf640429c2)"/></g><g id="patch_47"><path d="M822.325 224.325 836.124 224.325 836.124 219.387 822.325 219.387Z" fill="#FFA500" clip-path="url(#pdf640429c2)"/></g><g id="matplotlib.axis_3"><g id="xtick_21"><g id="line2d_30"><g><use x="501.501" y="224.325" width="100%" height="100%" xlink:href="#me505e06eaf" stroke="#000000" stroke-width="0.8"></use></g></g><g id="text_33"><g transform="matrix(6.12323e-18 -0.1 -0.1 -6.12323e-18 504.26 263.137)"><use width="100%" height="100%" xlink:href="#DejaVuSans-49"></use><use x="63.623" width="100%" height="100%" xlink:href="#DejaVuSans-49"></use><use x="127.246" width="100%" height="100%" xlink:href="#DejaVuSans-50"></use><use x="190.869" width="100%" height="100%" xlink:href="#DejaVuSans-51"></use><use x="254.492" width="100%" height="100%" xlink:href="#DejaVuSans-48"></use></g></g></g><g id="xtick_22"><g id="line2d_31"><g><use x="518.749" y="224.325" width="100%" height="100%" xlink:href="#me505e06eaf" stroke="#000000" stroke-width="0.8"></use></g></g><g id="text_34"><g transform="matrix(6.12323e-18 -0.1 -0.1 -6.12323e-18 521.509 263.137)"><use width="100%" height="100%" xlink:href="#DejaVuSans-49"></use><use x="63.623" width="100%" height="100%" xlink:href="#DejaVuSans-49"></use><use x="127.246" width="100%" height="100%" xlink:href="#DejaVuSans-52"></use><use x="190.869" width="100%" height="100%" xlink:href="#DejaVuSans-49"></use><use x="254.492" width="100%" height="100%" xlink:href="#DejaVuSans-55"></use></g></g></g><g id="xtick_23"><g id="line2d_32"><g><use x="535.998" y="224.325" width="100%" height="100%" xlink:href="#me505e06eaf" stroke="#000000" stroke-width="0.8"></use></g></g><g id="text_35"><g transform="matrix(6.12323e-18 -0.1 -0.1 -6.12323e-18 538.757 263.137)"><use width="100%" height="100%" xlink:href="#DejaVuSans-49"></use><use x="63.623" width="100%" height="100%" xlink:href="#DejaVuSans-48"></use><use x="127.246" width="100%" height="100%" xlink:href="#DejaVuSans-52"></use><use x="190.869" width="100%" height="100%" xlink:href="#DejaVuSans-55"></use><use x="254.492" width="100%" height="100%" xlink:href="#DejaVuSans-50"></use></g></g></g><g id="xtick_24"><g id="line2d_33"><g><use x="553.246" y="224.325" width="100%" height="100%" xlink:href="#me505e06eaf" stroke="#000000" stroke-width="0.8"></use></g></g><g id="text_36"><g transform="matrix(6.12323e-18 -0.1 -0.1 -6.12323e-18 556.006 263.137)"><use width="100%" height="100%" xlink:href="#DejaVuSans-49"></use><use x="63.623" width="100%" height="100%" xlink:href="#DejaVuSans-48"></use><use x="127.246" width="100%" height="100%" xlink:href="#DejaVuSans-52"></use><use x="190.869" width="100%" height="100%" xlink:href="#DejaVuSans-55"></use><use x="254.492" width="100%" height="100%" xlink:href="#DejaVuSans-48"></use></g></g></g><g id="xtick_25"><g id="line2d_34"><g><use x="570.495" y="224.325" width="100%" height="100%" xlink:href="#me505e06eaf" stroke="#000000" stroke-width="0.8"></use></g></g><g id="text_37"><g transform="matrix(6.12323e-18 -0.1 -0.1 -6.12323e-18 573.254 263.137)"><use width="100%" height="100%" xlink:href="#DejaVuSans-49"></use><use x="63.623" width="100%" height="100%" xlink:href="#DejaVuSans-48"></use><use x="127.246" width="100%" height="100%" xlink:href="#DejaVuSans-52"></use><use x="190.869" width="100%" height="100%" xlink:href="#DejaVuSans-55"></use><use x="254.492" width="100%" height="100%" xlink:href="#DejaVuSans-53"></use></g></g></g><g id="xtick_26"><g id="line2d_35"><g><use x="587.744" y="224.325" width="100%" height="100%" xlink:href="#me505e06eaf" stroke="#000000" stroke-width="0.8"></use></g></g><g id="text_38"><g transform="matrix(6.12323e-18 -0.1 -0.1 -6.12323e-18 590.503 263.137)"><use width="100%" height="100%" xlink:href="#DejaVuSans-49"></use><use x="63.623" width="100%" height="100%" xlink:href="#DejaVuSans-49"></use><use x="127.246" width="100%" height="100%" xlink:href="#DejaVuSans-52"></use><use x="190.869" width="100%" height="100%" xlink:href="#DejaVuSans-49"></use><use x="254.492" width="100%" height="100%" xlink:href="#DejaVuSans-52"></use></g></g></g><g id="xtick_27"><g id="line2d_36"><g><use x="604.992" y="224.325" width="100%" height="100%" xlink:href="#me505e06eaf" stroke="#000000" stroke-width="0.8"></use></g></g><g id="text_39"><g transform="matrix(6.12323e-18 -0.1 -0.1 -6.12323e-18 607.752 263.137)"><use width="100%" height="100%" xlink:href="#DejaVuSans-49"></use><use x="63.623" width="100%" height="100%" xlink:href="#DejaVuSans-48"></use><use x="127.246" width="100%" height="100%" xlink:href="#DejaVuSans-48"></use><use x="190.869" width="100%" height="100%" xlink:href="#DejaVuSans-52"></use><use x="254.492" width="100%" height="100%" xlink:href="#DejaVuSans-52"></use></g></g></g><g id="xtick_28"><g id="line2d_37"><g><use x="622.241" y="224.325" width="100%" height="100%" xlink:href="#me505e06eaf" stroke="#000000" stroke-width="0.8"></use></g></g><g id="text_40"><g transform="matrix(6.12323e-18 -0.1 -0.1 -6.12323e-18 625 263.137)"><use width="100%" height="100%" xlink:href="#DejaVuSans-49"></use><use x="63.623" width="100%" height="100%" xlink:href="#DejaVuSans-48"></use><use x="127.246" width="100%" height="100%" xlink:href="#DejaVuSans-48"></use><use x="190.869" width="100%" height="100%" xlink:href="#DejaVuSans-51"></use><use x="254.492" width="100%" height="100%" xlink:href="#DejaVuSans-52"></use></g></g></g><g id="xtick_29"><g id="line2d_38"><g><use x="639.49" y="224.325" width="100%" height="100%" xlink:href="#me505e06eaf" stroke="#000000" stroke-width="0.8"></use></g></g><g id="text_41"><g transform="matrix(6.12323e-18 -0.1 -0.1 -6.12323e-18 642.249 263.137)"><use width="100%" height="100%" xlink:href="#DejaVuSans-49"></use><use x="63.623" width="100%" height="100%" xlink:href="#DejaVuSans-49"></use><use x="127.246" width="100%" height="100%" xlink:href="#DejaVuSans-50"></use><use x="190.869" width="100%" height="100%" xlink:href="#DejaVuSans-49"></use><use x="254.492" width="100%" height="100%" xlink:href="#DejaVuSans-57"></use></g></g></g><g id="xtick_30"><g id="line2d_39"><g><use x="656.738" y="224.325" width="100%" height="100%" xlink:href="#me505e06eaf" stroke="#000000" stroke-width="0.8"></use></g></g><g id="text_42"><g transform="matrix(6.12323e-18 -0.1 -0.1 -6.12323e-18 659.498 263.137)"><use width="100%" height="100%" xlink:href="#DejaVuSans-49"></use><use x="63.623" width="100%" height="100%" xlink:href="#DejaVuSans-49"></use><use x="127.246" width="100%" height="100%" xlink:href="#DejaVuSans-49"></use><use x="190.869" width="100%" height="100%" xlink:href="#DejaVuSans-48"></use><use x="254.492" width="100%" height="100%" xlink:href="#DejaVuSans-53"></use></g></g></g><g id="xtick_31"><g id="line2d_40"><g><use x="673.987" y="224.325" width="100%" height="100%" xlink:href="#me505e06eaf" stroke="#000000" stroke-width="0.8"></use></g></g><g id="text_43"><g transform="matrix(6.12323e-18 -0.1 -0.1 -6.12323e-18 676.746 263.137)"><use width="100%" height="100%" xlink:href="#DejaVuSans-49"></use><use x="63.623" width="100%" height="100%" xlink:href="#DejaVuSans-48"></use><use x="127.246" width="100%" height="100%" xlink:href="#DejaVuSans-48"></use><use x="190.869" width="100%" height="100%" xlink:href="#DejaVuSans-50"></use><use x="254.492" width="100%" height="100%" xlink:href="#DejaVuSans-48"></use></g></g></g><g id="xtick_32"><g id="line2d_41"><g><use x="691.235" y="224.325" width="100%" height="100%" xlink:href="#me505e06eaf" stroke="#000000" stroke-width="0.8"></use></g></g><g id="text_44"><g transform="matrix(6.12323e-18 -0.1 -0.1 -6.12323e-18 693.995 263.137)"><use width="100%" height="100%" xlink:href="#DejaVuSans-49"></use><use x="63.623" width="100%" height="100%" xlink:href="#DejaVuSans-49"></use><use x="127.246" width="100%" height="100%" xlink:href="#DejaVuSans-50"></use><use x="190.869" width="100%" height="100%" xlink:href="#DejaVuSans-50"></use><use x="254.492" width="100%" height="100%" xlink:href="#DejaVuSans-51"></use></g></g></g><g id="xtick_33"><g id="line2d_42"><g><use x="708.484" y="224.325" width="100%" height="100%" xlink:href="#me505e06eaf" stroke="#000000" stroke-width="0.8"></use></g></g><g id="text_45"><g transform="matrix(6.12323e-18 -0.1 -0.1 -6.12323e-18 711.243 263.137)"><use width="100%" height="100%" xlink:href="#DejaVuSans-49"></use><use x="63.623" width="100%" height="100%" xlink:href="#DejaVuSans-49"></use><use x="127.246" width="100%" height="100%" xlink:href="#DejaVuSans-50"></use><use x="190.869" width="100%" height="100%" xlink:href="#DejaVuSans-50"></use><use x="254.492" width="100%" height="100%" xlink:href="#DejaVuSans-49"></use></g></g></g><g id="xtick_34"><g id="line2d_43"><g><use x="725.733" y="224.325" width="100%" height="100%" xlink:href="#me505e06eaf" stroke="#000000" stroke-width="0.8"></use></g></g><g id="text_46"><g transform="matrix(6.12323e-18 -0.1 -0.1 -6.12323e-18 728.492 263.137)"><use width="100%" height="100%" xlink:href="#DejaVuSans-49"></use><use x="63.623" width="100%" height="100%" xlink:href="#DejaVuSans-48"></use><use x="127.246" width="100%" height="100%" xlink:href="#DejaVuSans-52"></use><use x="190.869" width="100%" height="100%" xlink:href="#DejaVuSans-53"></use><use x="254.492" width="100%" height="100%" xlink:href="#DejaVuSans-57"></use></g></g></g><g id="xtick_35"><g id="line2d_44"><g><use x="742.981" y="224.325" width="100%" height="100%" xlink:href="#me505e06eaf" stroke="#000000" stroke-width="0.8"></use></g></g><g id="text_47"><g transform="matrix(6.12323e-18 -0.1 -0.1 -6.12323e-18 745.741 263.137)"><use width="100%" height="100%" xlink:href="#DejaVuSans-49"></use><use x="63.623" width="100%" height="100%" xlink:href="#DejaVuSans-48"></use><use x="127.246" width="100%" height="100%" xlink:href="#DejaVuSans-52"></use><use x="190.869" width="100%" height="100%" xlink:href="#DejaVuSans-55"></use><use x="254.492" width="100%" height="100%" xlink:href="#DejaVuSans-49"></use></g></g></g><g id="xtick_36"><g id="line2d_45"><g><use x="760.23" y="224.325" width="100%" height="100%" xlink:href="#me505e06eaf" stroke="#000000" stroke-width="0.8"></use></g></g><g id="text_48"><g transform="matrix(6.12323e-18 -0.1 -0.1 -6.12323e-18 762.989 263.137)"><use width="100%" height="100%" xlink:href="#DejaVuSans-49"></use><use x="63.623" width="100%" height="100%" xlink:href="#DejaVuSans-49"></use><use x="127.246" width="100%" height="100%" xlink:href="#DejaVuSans-50"></use><use x="190.869" width="100%" height="100%" xlink:href="#DejaVuSans-49"></use><use x="254.492" width="100%" height="100%" xlink:href="#DejaVuSans-48"></use></g></g></g><g id="xtick_37"><g id="line2d_46"><g><use x="777.479" y="224.325" width="100%" height="100%" xlink:href="#me505e06eaf" stroke="#000000" stroke-width="0.8"></use></g></g><g id="text_49"><g transform="matrix(6.12323e-18 -0.1 -0.1 -6.12323e-18 780.238 263.137)"><use width="100%" height="100%" xlink:href="#DejaVuSans-49"></use><use x="63.623" width="100%" height="100%" xlink:href="#DejaVuSans-49"></use><use x="127.246" width="100%" height="100%" xlink:href="#DejaVuSans-50"></use><use x="190.869" width="100%" height="100%" xlink:href="#DejaVuSans-51"></use><use x="254.492" width="100%" height="100%" xlink:href="#DejaVuSans-54"></use></g></g></g><g id="xtick_38"><g id="line2d_47"><g><use x="794.727" y="224.325" width="100%" height="100%" xlink:href="#me505e06eaf" stroke="#000000" stroke-width="0.8"></use></g></g><g id="text_50"><g transform="matrix(6.12323e-18 -0.1 -0.1 -6.12323e-18 797.487 263.137)"><use width="100%" height="100%" xlink:href="#DejaVuSans-49"></use><use x="63.623" width="100%" height="100%" xlink:href="#DejaVuSans-49"></use><use x="127.246" width="100%" height="100%" xlink:href="#DejaVuSans-54"></use><use x="190.869" width="100%" height="100%" xlink:href="#DejaVuSans-57"></use><use x="254.492" width="100%" height="100%" xlink:href="#DejaVuSans-50"></use></g></g></g><g id="xtick_39"><g id="line2d_48"><g><use x="811.976" y="224.325" width="100%" height="100%" xlink:href="#me505e06eaf" stroke="#000000" stroke-width="0.8"></use></g></g><g id="text_51"><g transform="matrix(6.12323e-18 -0.1 -0.1 -6.12323e-18 814.735 263.137)"><use width="100%" height="100%" xlink:href="#DejaVuSans-49"></use><use x="63.623" width="100%" height="100%" xlink:href="#DejaVuSans-49"></use><use x="127.246" width="100%" height="100%" xlink:href="#DejaVuSans-51"></use><use x="190.869" width="100%" height="100%" xlink:href="#DejaVuSans-56"></use><use x="254.492" width="100%" height="100%" xlink:href="#DejaVuSans-53"></use></g></g></g><g id="xtick_40"><g id="line2d_49"><g><use x="829.224" y="224.325" width="100%" height="100%" xlink:href="#me505e06eaf" stroke="#000000" stroke-width="0.8"></use></g></g><g id="text_52"><g transform="matrix(6.12323e-18 -0.1 -0.1 -6.12323e-18 831.984 263.137)"><use width="100%" height="100%" xlink:href="#DejaVuSans-49"></use><use x="63.623" width="100%" height="100%" xlink:href="#DejaVuSans-49"></use><use x="127.246" width="100%" height="100%" xlink:href="#DejaVuSans-50"></use><use x="190.869" width="100%" height="100%" xlink:href="#DejaVuSans-49"></use><use x="254.492" width="100%" height="100%" xlink:href="#DejaVuSans-56"></use></g></g></g><g id="text_53"><g transform="matrix(0.1 0 0 -0.1 643.726 274.736)"><use width="100%" height="100%" xlink:href="#DejaVuSans-90"></use><use x="68.5059" width="100%" height="100%" xlink:href="#DejaVuSans-105"></use><use x="96.2891" width="100%" height="100%" xlink:href="#DejaVuSans-112"></use><use x="159.766" width="100%" height="100%" xlink:href="#DejaVuSans-32"></use><use x="191.553" width="100%" height="100%" xlink:href="#DejaVuSans-99"></use><use x="246.533" width="100%" height="100%" xlink:href="#DejaVuSans-111"></use><use x="307.715" width="100%" height="100%" xlink:href="#DejaVuSans-100"></use><use x="371.191" width="100%" height="100%" xlink:href="#DejaVuSans-101"></use></g></g></g><g id="matplotlib.axis_4"><g id="ytick_10"><g id="line2d_50"><g><use x="477.525" y="224.325" width="100%" height="100%" xlink:href="#m59b1d5f39a" stroke="#000000" stroke-width="0.8"></use></g></g><g id="text_54"><g transform="matrix(0.1 0 0 -0.1 464.163 228.124)"><use width="100%" height="100%" xlink:href="#DejaVuSans-48"></use></g></g></g><g id="ytick_11"><g id="line2d_51"><g><use x="477.525" y="199.634" width="100%" height="100%" xlink:href="#m59b1d5f39a" stroke="#000000" stroke-width="0.8"></use></g></g><g id="text_55"><g transform="matrix(0.1 0 0 -0.1 457.8 203.434)"><use width="100%" height="100%" xlink:href="#DejaVuSans-50"></use><use x="63.623" width="100%" height="100%" xlink:href="#DejaVuSans-48"></use></g></g></g><g id="ytick_12"><g id="line2d_52"><g><use x="477.525" y="174.944" width="100%" height="100%" xlink:href="#m59b1d5f39a" stroke="#000000" stroke-width="0.8"></use></g></g><g id="text_56"><g transform="matrix(0.1 0 0 -0.1 457.8 178.743)"><use width="100%" height="100%" xlink:href="#DejaVuSans-52"></use><use x="63.623" width="100%" height="100%" xlink:href="#DejaVuSans-48"></use></g></g></g><g id="ytick_13"><g id="line2d_53"><g><use x="477.525" y="150.253" width="100%" height="100%" xlink:href="#m59b1d5f39a" stroke="#000000" stroke-width="0.8"></use></g></g><g id="text_57"><g transform="matrix(0.1 0 0 -0.1 457.8 154.052)"><use width="100%" height="100%" xlink:href="#DejaVuSans-54"></use><use x="63.623" width="100%" height="100%" xlink:href="#DejaVuSans-48"></use></g></g></g><g id="ytick_14"><g id="line2d_54"><g><use x="477.525" y="125.562" width="100%" height="100%" xlink:href="#m59b1d5f39a" stroke="#000000" stroke-width="0.8"></use></g></g><g id="text_58"><g transform="matrix(0.1 0 0 -0.1 457.8 129.362)"><use width="100%" height="100%" xlink:href="#DejaVuSans-56"></use><use x="63.623" width="100%" height="100%" xlink:href="#DejaVuSans-48"></use></g></g></g><g id="ytick_15"><g id="line2d_55"><g><use x="477.525" y="100.872" width="100%" height="100%" xlink:href="#m59b1d5f39a" stroke="#000000" stroke-width="0.8"></use></g></g><g id="text_59"><g transform="matrix(0.1 0 0 -0.1 451.438 104.671)"><use width="100%" height="100%" xlink:href="#DejaVuSans-49"></use><use x="63.623" width="100%" height="100%" xlink:href="#DejaVuSans-48"></use><use x="127.246" width="100%" height="100%" xlink:href="#DejaVuSans-48"></use></g></g></g><g id="ytick_16"><g id="line2d_56"><g><use x="477.525" y="76.1813" width="100%" height="100%" xlink:href="#m59b1d5f39a" stroke="#000000" stroke-width="0.8"></use></g></g><g id="text_60"><g transform="matrix(0.1 0 0 -0.1 451.438 79.9805)"><use width="100%" height="100%" xlink:href="#DejaVuSans-49"></use><use x="63.623" width="100%" height="100%" xlink:href="#DejaVuSans-50"></use><use x="127.246" width="100%" height="100%" xlink:href="#DejaVuSans-48"></use></g></g></g><g id="ytick_17"><g id="line2d_57"><g><use x="477.525" y="51.4906" width="100%" height="100%" xlink:href="#m59b1d5f39a" stroke="#000000" stroke-width="0.8"></use></g></g><g id="text_61"><g transform="matrix(0.1 0 0 -0.1 451.438 55.2898)"><use width="100%" height="100%" xlink:href="#DejaVuSans-49"></use><use x="63.623" width="100%" height="100%" xlink:href="#DejaVuSans-52"></use><use x="127.246" width="100%" height="100%" xlink:href="#DejaVuSans-48"></use></g></g></g><g id="ytick_18"><g id="line2d_58"><g><use x="477.525" y="26.8" width="100%" height="100%" xlink:href="#m59b1d5f39a" stroke="#000000" stroke-width="0.8"></use></g></g><g id="text_62"><g transform="matrix(0.1 0 0 -0.1 451.438 30.5992)"><use width="100%" height="100%" xlink:href="#DejaVuSans-49"></use><use x="63.623" width="100%" height="100%" xlink:href="#DejaVuSans-54"></use><use x="127.246" width="100%" height="100%" xlink:href="#DejaVuSans-48"></use></g></g></g><g id="text_63"><g transform="matrix(6.12323e-18 -0.1 -0.1 -6.12323e-18 445.358 177.432)"><use width="100%" height="100%" xlink:href="#DejaVuSans-68"></use><use x="77.002" width="100%" height="100%" xlink:href="#DejaVuSans-101"></use><use x="138.525" width="100%" height="100%" xlink:href="#DejaVuSans-110"></use><use x="201.904" width="100%" height="100%" xlink:href="#DejaVuSans-115"></use><use x="254.004" width="100%" height="100%" xlink:href="#DejaVuSans-105"></use><use x="281.787" width="100%" height="100%" xlink:href="#DejaVuSans-116"></use><use x="320.996" width="100%" height="100%" xlink:href="#DejaVuSans-121"></use><use x="380.176" width="100%" height="100%" xlink:href="#DejaVuSans-32"></use><use x="411.963" width="100%" height="100%" xlink:href="#DejaVuSans-40"></use><use x="450.977" width="100%" height="100%" xlink:href="#DejaVuSans-35"></use><use x="534.766" width="100%" height="100%" xlink:href="#DejaVuSans-32"></use><use x="566.553" width="100%" height="100%" xlink:href="#DejaVuSans-104"></use><use x="629.932" width="100%" height="100%" xlink:href="#DejaVuSans-111"></use><use x="691.113" width="100%" height="100%" xlink:href="#DejaVuSans-116"></use><use x="730.322" width="100%" height="100%" xlink:href="#DejaVuSans-115"></use><use x="782.422" width="100%" height="100%" xlink:href="#DejaVuSans-112"></use><use x="845.898" width="100%" height="100%" xlink:href="#DejaVuSans-111"></use><use x="907.08" width="100%" height="100%" xlink:href="#DejaVuSans-116"></use><use x="946.289" width="100%" height="100%" xlink:href="#DejaVuSans-115"></use><use x="998.389" width="100%" height="100%" xlink:href="#DejaVuSans-41"></use></g></g></g><g id="patch_48"><path d="M477.525 224.325 477.525 26.8" stroke="#000000" stroke-width="0.8" stroke-linecap="square" stroke-linejoin="miter" fill="none"/></g><g id="patch_49"><path d="M853.2 224.325 853.2 26.8" stroke="#000000" stroke-width="0.8" stroke-linecap="square" stroke-linejoin="miter" fill="none"/></g><g id="patch_50"><path d="M477.525 224.325 853.2 224.325" stroke="#000000" stroke-width="0.8" stroke-linecap="square" stroke-linejoin="miter" fill="none"/></g><g id="patch_51"><path d="M477.525 26.8 853.2 26.8" stroke="#000000" stroke-width="0.8" stroke-linecap="square" stroke-linejoin="miter" fill="none"/></g><g id="text_64"><g transform="matrix(0.1 0 0 -0.1 639.49 51.4906)"><defs><path d="M34.1875 63.1875 20.7969 26.9062 47.6094 26.9062ZM28.6094 72.9062 39.7969 72.9062 67.5781 0 57.3281 0 50.6875 18.7031 17.8281 18.7031 11.1875 0 0.78125 0Z" id="DejaVuSans-65"/><path d="M9.42188 75.9844 18.4062 75.9844 18.4062 0 9.42188 0Z" id="DejaVuSans-108"/><path d="M5.51562 54.6875 48.1875 54.6875 48.1875 46.4844 14.4062 7.17188 48.1875 7.17188 48.1875 0 4.29688 0 4.29688 8.20312 38.0938 47.5156 5.51562 47.5156Z" id="DejaVuSans-122"/><path d="M73.1875 49.2188 22.7969 31.2969 73.1875 13.4844 73.1875 4.59375 10.5938 27.2969 10.5938 35.4062 73.1875 58.1094Z" id="DejaVuSans-60"/></defs><use width="100%" height="100%" xlink:href="#DejaVuSans-40"></use><use x="39.0137" width="100%" height="100%" xlink:href="#DejaVuSans-65"></use><use x="107.422" width="100%" height="100%" xlink:href="#DejaVuSans-108"></use><use x="135.205" width="100%" height="100%" xlink:href="#DejaVuSans-108"></use><use x="162.988" width="100%" height="100%" xlink:href="#DejaVuSans-32"></use><use x="194.775" width="100%" height="100%" xlink:href="#DejaVuSans-122"></use><use x="247.266" width="100%" height="100%" xlink:href="#DejaVuSans-105"></use><use x="275.049" width="100%" height="100%" xlink:href="#DejaVuSans-112"></use><use x="338.525" width="100%" height="100%" xlink:href="#DejaVuSans-115"></use><use x="390.625" width="100%" height="100%" xlink:href="#DejaVuSans-32"></use><use x="422.412" width="100%" height="100%" xlink:href="#DejaVuSans-60"></use><use x="506.201" width="100%" height="100%" xlink:href="#DejaVuSans-32"></use><use x="537.988" width="100%" height="100%" xlink:href="#DejaVuSans-53"></use><use x="601.611" width="100%" height="100%" xlink:href="#DejaVuSans-32"></use><use x="633.398" width="100%" height="100%" xlink:href="#DejaVuSans-104"></use><use x="696.777" width="100%" height="100%" xlink:href="#DejaVuSans-111"></use><use x="757.959" width="100%" height="100%" xlink:href="#DejaVuSans-116"></use><use x="797.168" width="100%" height="100%" xlink:href="#DejaVuSans-115"></use><use x="849.268" width="100%" height="100%" xlink:href="#DejaVuSans-112"></use><use x="912.744" width="100%" height="100%" xlink:href="#DejaVuSans-111"></use><use x="973.926" width="100%" height="100%" xlink:href="#DejaVuSans-116"></use><use x="1013.13" width="100%" height="100%" xlink:href="#DejaVuSans-115"></use><use x="1065.23" width="100%" height="100%" xlink:href="#DejaVuSans-41"></use></g></g><g id="text_65"><g transform="matrix(0.12 0 0 -0.12 562.776 20.8)"><defs><path d="M9.1875 72.9062 27.9844 72.9062 27.9844 14.2031 60.9844 14.2031 60.9844 0 9.1875 0Z" id="DejaVuSans-Bold-76"/><path d="M32.9062 24.6094C29.2604 24.6094 26.5156 23.9896 24.6719 22.75 22.8385 21.5208 21.9219 19.6979 21.9219 17.2812 21.9219 15.0729 22.6615 13.3385 24.1406 12.0781 25.6302 10.8281 27.6927 10.2031 30.3281 10.2031 33.6094 10.2031 36.375 11.3802 38.625 13.7344 40.875 16.099 42 19.0573 42 22.6094L42 24.6094ZM59.625 31.2031 59.625 0 42 0 42 8.10938C39.6562 4.78646 37.0156 2.36458 34.0781 0.84375 31.151-0.666667 27.5885-1.42188 23.3906-1.42188 17.724-1.42188 13.125 0.229167 9.59375 3.53125 6.0625 6.84375 4.29688 11.1354 4.29688 16.4062 4.29688 22.8229 6.5 27.526 10.9062 30.5156 15.3229 33.5156 22.25 35.0156 31.6875 35.0156L42 35.0156 42 36.375C42 39.1458 40.9062 41.1719 38.7188 42.4531 36.5417 43.7448 33.1406 44.3906 28.5156 44.3906 24.776 44.3906 21.2917 44.0156 18.0625 43.2656 14.8438 42.5156 11.849 41.3906 9.07812 39.8906L9.07812 53.2188C12.8281 54.1354 16.5885 54.8281 20.3594 55.2969 24.1406 55.7656 27.9167 56 31.6875 56 41.5521 56 48.6719 54.0573 53.0469 50.1719 57.4323 46.2865 59.625 39.9635 59.625 31.2031Z" id="DejaVuSans-Bold-97"/></defs><use width="100%" height="100%" xlink:href="#DejaVuSans-Bold-76"></use><use x="63.7207" width="100%" height="100%" xlink:href="#DejaVuSans-Bold-101"></use><use x="131.543" width="100%" height="100%" xlink:href="#DejaVuSans-Bold-97"></use><use x="199.023" width="100%" height="100%" xlink:href="#DejaVuSans-Bold-115"></use><use x="258.545" width="100%" height="100%" xlink:href="#DejaVuSans-Bold-116"></use><use x="306.348" width="100%" height="100%" xlink:href="#DejaVuSans-Bold-32"></use><use x="341.162" width="100%" height="100%" xlink:href="#DejaVuSans-Bold-100"></use><use x="412.744" width="100%" height="100%" xlink:href="#DejaVuSans-Bold-101"></use><use x="480.566" width="100%" height="100%" xlink:href="#DejaVuSans-Bold-110"></use><use x="551.758" width="100%" height="100%" xlink:href="#DejaVuSans-Bold-115"></use><use x="611.279" width="100%" height="100%" xlink:href="#DejaVuSans-Bold-101"></use><use x="679.102" width="100%" height="100%" xlink:href="#DejaVuSans-Bold-32"></use><use x="713.916" width="100%" height="100%" xlink:href="#DejaVuSans-Bold-104"></use><use x="785.107" width="100%" height="100%" xlink:href="#DejaVuSans-Bold-111"></use><use x="853.809" width="100%" height="100%" xlink:href="#DejaVuSans-Bold-116"></use><use x="901.611" width="100%" height="100%" xlink:href="#DejaVuSans-Bold-115"></use><use x="961.133" width="100%" height="100%" xlink:href="#DejaVuSans-Bold-112"></use><use x="1032.71" width="100%" height="100%" xlink:href="#DejaVuSans-Bold-111"></use><use x="1101.42" width="100%" height="100%" xlink:href="#DejaVuSans-Bold-116"></use><use x="1149.22" width="100%" height="100%" xlink:href="#DejaVuSans-Bold-32"></use><use x="1184.03" width="100%" height="100%" xlink:href="#DejaVuSans-Bold-122"></use><use x="1242.24" width="100%" height="100%" xlink:href="#DejaVuSans-Bold-105"></use><use x="1276.51" width="100%" height="100%" xlink:href="#DejaVuSans-Bold-112"></use><use x="1348.1" width="100%" height="100%" xlink:href="#DejaVuSans-Bold-32"></use><use x="1382.91" width="100%" height="100%" xlink:href="#DejaVuSans-Bold-99"></use><use x="1442.19" width="100%" height="100%" xlink:href="#DejaVuSans-Bold-111"></use><use x="1510.89" width="100%" height="100%" xlink:href="#DejaVuSans-Bold-100"></use><use x="1582.47" width="100%" height="100%" xlink:href="#DejaVuSans-Bold-101"></use><use x="1650.29" width="100%" height="100%" xlink:href="#DejaVuSans-Bold-115"></use></g></g></g></g></svg>